<?xml version="1.0" encoding="utf-8"?>
<!-- Generator: Adobe Illustrator 22.0.1, SVG Export Plug-In . SVG Version: 6.00 Build 0)  -->
<svg version="1.1" id="Layer_1" xmlns="http://www.w3.org/2000/svg" xmlns:xlink="http://www.w3.org/1999/xlink" x="0px" y="0px"
	 viewBox="0 0 130 50" style="enable-background:new 0 0 130 50;" xml:space="preserve">
<style type="text/css">
	.st0{fill:#FFFFFF;}
</style>
<g>
	<path class="st0" d="M116.7,36.6c-10.6,0-12.3-6.5-12.3-10.1v-0.8c0-3.7,1.4-10,12.3-10h1c10.6,0,12.3,5.6,12.3,7.9V24h-6.1
		c-0.1-0.5-0.9-3.4-6.7-3.4c-5.5,0-6.8,2.7-6.8,5.2v0.3c0,2.4,1.5,5.5,6.8,5.5c5.9,0,6.5-3.1,6.7-3.6h6.1v0.3
		c0,2.5-1.8,8.2-12.3,8.2H116.7z"/>
	<polygon class="st0" points="55.8,16.1 46.6,36.3 52.4,36.3 54.1,32.6 56.1,28 59.5,20.5 63.1,28 57.3,28 55.4,32.6 65.2,32.6 
		66.9,36.3 73.1,36.3 63.3,16.1 	"/>
	<polygon class="st0" points="88.3,29.4 88.3,29.4 83.7,16.1 74.4,16.1 74.4,36.2 80.2,36.2 80.2,21.2 80.2,21.2 85.5,36.2 91,36.2 
		96.3,21.2 96.4,21.2 96.4,36.2 102.2,36.2 102.2,16.1 92.9,16.1 	"/>
	<g>
		<path class="st0" d="M33.2,13.5l5.6-6.7H28.4L26,9.6c-1.4-0.4-2.8-0.6-4.3-0.6c-9.4,0-17.1,7.7-17.1,17.1c0,2.6,0.6,5,1.6,7.2
			L0,40.7h10.4l0.9-1c2.9,2.2,6.5,3.5,10.4,3.5c9.4,0,17.1-7.7,17.1-17.1C38.8,21.1,36.6,16.6,33.2,13.5 M6.3,26.1
			c0-2,0.4-3.9,1.1-5.7l3.9,4.7l5.2-6.2l-4.1-5c2.6-2,5.8-3.2,9.3-3.2c1.1,0,2.1,0.1,3.1,0.3L7.4,31.9C6.7,30.1,6.3,28.2,6.3,26.1
			 M32,37.5l-8.6-10.3l-5.2,6.2l6.5,7.7c-1,0.2-2,0.3-3,0.3c-3.5,0-6.7-1.2-9.3-3.1l19.7-23.6c3.1,2.8,5,6.8,5,11.3
			C37.1,30.6,35.1,34.7,32,37.5"/>
	</g>
</g>
</svg>
