<?xml version="1.0" encoding="utf-8"?>
<!-- Generator: Adobe Illustrator 22.0.1, SVG Export Plug-In . SVG Version: 6.00 Build 0)  -->
<svg version="1.1" id="Layer_1" xmlns="http://www.w3.org/2000/svg" xmlns:xlink="http://www.w3.org/1999/xlink" x="0px" y="0px"
	 viewBox="0 0 130 50" style="enable-background:new 0 0 130 50;" xml:space="preserve">
<style type="text/css">
	.st0{fill:#FEC40E;}
	.st1{fill:#008D96;}
	.st2{fill:#FFFFFF;}
	.st3{fill:#47505A;}
</style>
<g>
	<polygon class="st0" points="28.4,6.6 0,40.6 10.4,40.6 38.8,6.6 	"/>
	<path class="st1" d="M18.2,33.3l5.2-6.2l9.7,11.6c3.5-3.1,5.6-7.6,5.6-12.7c0-5-2.2-9.5-5.6-12.7L11.3,39.5
		c2.9,2.2,6.5,3.6,10.4,3.6c1.5,0,2.9-0.2,4.2-0.5L18.2,33.3z"/>
	<path class="st1" d="M21.7,8.9c-3.9,0-7.5,1.3-10.4,3.6l5.2,6.2L11.3,25l-5.1-6.1c-1,2.2-1.6,4.6-1.6,7.1s0.6,4.9,1.6,7.1L26,9.5
		C24.6,9.1,23.2,8.9,21.7,8.9"/>
	<polygon class="st2" points="18.2,33.3 28.4,45.4 38.8,45.4 23.5,27 	"/>
	<polygon class="st2" points="10.4,11.4 0,11.4 11.3,25 16.5,18.7 	"/>
	<path class="st3" d="M116.7,36.4c-10.6,0-12.3-6.5-12.3-10.1v-0.8c0-3.7,1.4-10,12.3-10h1c10.6,0,12.3,5.6,12.3,7.9v0.3h-6.1
		c-0.1-0.5-0.9-3.4-6.7-3.4c-5.5,0-6.8,2.7-6.8,5.2V26c0,2.4,1.5,5.5,6.8,5.5c5.9,0,6.5-3.1,6.7-3.6h6.1v0.3c0,2.5-1.8,8.2-12.3,8.2
		H116.7z"/>
	<polygon class="st3" points="55.8,15.9 46.6,36.1 52.4,36.1 54.1,32.4 56.1,27.8 59.5,20.3 63.1,27.8 57.3,27.8 55.4,32.4 
		65.2,32.4 66.9,36.1 73.1,36.1 63.3,15.9 	"/>
	<polygon class="st3" points="88.3,29.2 88.3,29.2 83.7,15.9 74.4,15.9 74.4,36.1 80.2,36.1 80.2,21 80.2,21 85.5,36.1 91,36.1 
		96.3,21 96.4,21 96.4,36.1 102.2,36.1 102.2,15.9 92.9,15.9 	"/>
</g>
</svg>
