<?xml version="1.0" encoding="utf-8"?>
<!-- Generator: Adobe Illustrator 22.0.1, SVG Export Plug-In . SVG Version: 6.00 Build 0)  -->
<svg version="1.1" id="Layer_1" xmlns="http://www.w3.org/2000/svg" xmlns:xlink="http://www.w3.org/1999/xlink" x="0px" y="0px"
	 viewBox="0 0 112 112" style="enable-background:new 0 0 112 112;" xml:space="preserve">
<style type="text/css">
	.st0{clip-path:url(#SVGID_2_);}
	.st1{fill:#FF5A5A;}
	.st2{fill:#FF9797;}
	.st3{fill:#E25A5A;}
	.st4{fill:#58595B;}
	.st5{fill:#F8C91D;}
	.st6{fill:#FFD7A3;}
	.st7{fill:#E5C195;}
	.st8{fill:#FFE5B6;}
	.st9{fill:#DBAC16;}
</style>
<g>
	<defs>
		<rect id="SVGID_1_" width="112" height="112"/>
	</defs>
	<clipPath id="SVGID_2_">
		<use xlink:href="#SVGID_1_"  style="overflow:visible;"/>
	</clipPath>
	<g class="st0">
		<g>
			<path class="st1" d="M98,107.6l-2.7-25.1c-0.5-2.7-2.7-4.9-5.3-5.3l-21.7-3.7c0,0-2.4,8.5-12.3,8.9c-9.9-0.4-12.3-8.9-12.3-8.9
				L22,77.2c-2.7,0.5-4.8,2.6-5.3,5.3L14,107.6c-0.2,1.2-0.2,2.4,0,3.5l0,0c0.8,4.2,2.2,7.2,6.3,7.2h34.9h1.6h32.7
				c4.1,0,7.7-3,8.5-7.2l0,0C98.2,110,98.2,108.8,98,107.6z"/>
			<g>
				<g>
					<path class="st2" d="M17.8,107.3c-0.3,1.4-0.2,2.9,0,4.3c0.3,1.4,0.7,3.2,1.5,4.7c-1-0.2-1.6-0.7-1.9-1.2
						c-0.7-0.8-1.1-2.2-1.6-4.3c-0.2-0.9-0.2-1.8,0-2.9l2.7-25c0.3-1.7,1.5-3,3.1-3.6c-0.5,0.9-0.9,1.9-1.1,3L17.8,107.3z"/>
				</g>
				<g>
					<path class="st3" d="M96.3,109.4c0,0.5,0,0.9-0.1,1.4c-0.4,2.2-1.9,4-3.7,4.9c0.8-1.2,1.4-2.6,1.7-4.1c0.1-0.7,0.2-1.5,0.2-2.2
						c0-0.7-0.1-1.4-0.2-1.9l-2.7-25.3c-0.2-1-0.6-1.9-1.1-2.8c1.5,0.5,2.7,1.9,3,3.4l2.7,25.3C96.2,108.5,96.3,108.9,96.3,109.4z"
						/>
				</g>
			</g>
			<path class="st4" d="M89.5,120.3H20.3c-6.5,0-7.7-6.1-8.2-8.7c-0.3-1.4-0.3-2.9,0-4.3l2.7-25c0.7-3.7,3.5-6.5,6.9-7l23.4-4
				l0.5,1.7c0.1,0.3,2.2,7.1,10.5,7.5c8.2-0.4,10.3-7.4,10.4-7.5l0.5-1.7l23.4,4c3.4,0.6,6.2,3.4,6.9,6.9l2.7,25.2
				c0.3,1.4,0.3,2.8,0,4.2C98.9,116.6,94.5,120.3,89.5,120.3z M42.5,75.7l-20.2,3.5c-1.9,0.3-3.4,1.8-3.8,3.8l-2.7,25
				c-0.2,1.1-0.2,2,0,2.9c0.9,4.7,2.2,5.6,4.4,5.6h69.2c3.2,0,6-2.3,6.6-5.6c0.2-0.9,0.2-1.8,0-2.7l0-0.2l-2.7-25.1
				c-0.3-1.8-1.9-3.3-3.7-3.6l-20.2-3.5c-1.7,3.5-5.8,8.3-13.4,8.7C48.3,84,44.2,79.2,42.5,75.7z"/>
		</g>
		<g>
			<path class="st5" d="M83.4,73.3l-6.8-1.2c-0.7-0.1-1.3,0.4-1.3,1.1v24.5H36.6V73.2c0-0.7-0.6-1.2-1.3-1.1l-6.8,1.2
				c-0.5,0.1-0.9,0.6-0.9,1.1v16.5V99v18.8h56.7V99v-8.1V74.4C84.3,73.9,83.9,73.4,83.4,73.3z"/>
			<path class="st4" d="M86.2,119.8H25.7V74.4c0-1.5,1-2.8,2.5-3l6.8-1.2c0.9-0.2,1.8,0.1,2.5,0.7c0.7,0.6,1.1,1.5,1.1,2.4v22.5
				h34.9V73.2c0-0.9,0.4-1.8,1.1-2.4c0.7-0.6,1.6-0.8,2.5-0.7l6.8,1.2c1.4,0.3,2.5,1.5,2.5,3V119.8z M29.6,115.8h52.8V75.1l-5.1-0.9
				v25.4H34.7V74.2l-5.1,0.9V115.8z"/>
		</g>
		<g>
			<g>
				<path class="st6" d="M64.4,62.7h-8.2h-0.4h-8.2l-3.8,10.7c0,0,2.3,8.3,12.1,8.9h0.4c9.7-0.7,12.1-8.9,12.1-8.9L64.4,62.7z"/>
				<path class="st4" d="M55.8,84.3C44.7,83.6,42,74.4,41.9,74l-0.2-0.6l4.5-12.6h19.5l4.5,12.6L70.1,74c-0.1,0.4-2.8,9.6-13.8,10.3
					L55.8,84.3z M45.8,73.5c0.7,1.7,3.2,6.5,10.1,6.9l0.3,0c6.8-0.5,9.3-5.3,10-6.9l-3.1-8.8H48.9L45.8,73.5z"/>
			</g>
			<path class="st6" d="M37,40.9c-0.4,1.5-0.6,3.2-0.6,4.8c0,11.1,8.8,22.4,19.6,22.4c10.8,0,19.6-11.3,19.6-22.4
				c0-1.7-0.2-3.3-0.6-4.8H37z"/>
			<g>
				<g>
					<path class="st7" d="M73.7,44.9H38.3c0-0.6,0.1-1.3,0.2-2h34.9C73.6,43.6,73.6,44.2,73.7,44.9z"/>
				</g>
			</g>
			<path class="st4" d="M56,70.2c-12.3,0-21.5-12.9-21.5-24.4c0-1.7,0.2-3.5,0.6-5.3l0.4-1.5h41.1l0.4,1.5c0.4,1.8,0.6,3.6,0.6,5.3
				C77.5,57.3,68.3,70.2,56,70.2z M38.5,42.9c-0.2,1-0.2,1.9-0.2,2.9c0,9.7,7.6,20.5,17.7,20.5c10.1,0,17.7-10.8,17.7-20.5
				c0-0.9-0.1-1.9-0.2-2.9H38.5z"/>
		</g>
		<g>
			<path class="st5" d="M78.9,32.3c-0.5-0.4-0.7-0.9-0.8-1.5C77.1,19.1,67.6,10,56,10h0c-11.6,0-21.1,9.1-22.1,20.7
				c-0.1,0.6-0.3,1.2-0.8,1.5c-1.3,1-2.1,2.7-1.7,4.6c0.4,2.1,2.3,3.5,4.4,3.5c7.7,0,32.7,0,40.4,0c2.1,0,4-1.4,4.4-3.5
				C81,35,80.2,33.2,78.9,32.3z"/>
			<g>
				<g>
					<path class="st8" d="M48.7,13.3c-0.5,0.4-0.9,0.8-1.4,1.2c-4.4,4.2-7.2,9.9-7.7,16.2c-2,1.5-3,4-2.5,6.6
						c0.1,0.4,0.2,0.8,0.3,1.2h-1.7c-1.2,0-2.3-0.8-2.6-1.9c-0.2-1,0.2-2,0.9-2.6c0.9-0.6,1.5-1.7,1.6-3c0.4-5.2,2.8-9.9,6.5-13.5
						C44.2,15.6,46.4,14.2,48.7,13.3z"/>
				</g>
			</g>
			<g>
				<g>
					<polygon class="st9" points="68.5,40.4 68.6,40.4 68.6,40.4 					"/>
				</g>
				<g>
					<path class="st9" d="M78.8,36.5c-0.2,1.1-1.3,1.9-2.6,1.9h-1.7c0.2-0.4,0.3-0.8,0.4-1.2c0.5-2.5-0.5-5.1-2.5-6.7
						c-0.7-7-4.1-13.2-9.2-17.3c7.1,2.7,12.3,9.4,13,17.6c0.1,1.2,0.7,2.3,1.6,2.9C78.6,34.4,79,35.4,78.8,36.5z"/>
				</g>
			</g>
			<g>
				<path class="st4" d="M73.3,36.3H53.3c-1.1,0-1.9-0.9-1.9-2c0-1.1,0.9-2,1.9-2h19.9c1.1,0,1.9,0.9,1.9,2
					C75.2,35.4,74.3,36.3,73.3,36.3z"/>
			</g>
			<g>
				<path class="st4" d="M46.9,36.3h-8.2c-1.1,0-1.9-0.9-1.9-2c0-1.1,0.9-2,1.9-2h8.2c1.1,0,1.9,0.9,1.9,2
					C48.9,35.4,48,36.3,46.9,36.3z"/>
			</g>
			<path class="st4" d="M80,30.7l0-0.1C78.9,17.7,68.5,8,56,8l0,0c0,0,0,0,0,0c-12.5,0-22.9,9.7-24,22.7c-2,1.5-3,4-2.5,6.6
				c0.6,3,3.2,5.1,6.3,5.1h40.4c3.1,0,5.7-2.1,6.3-5.1C83,34.7,82.1,32.2,80,30.7z M78.8,36.5c-0.2,1.1-1.3,2-2.5,2H35.8
				c-1.2,0-2.3-0.8-2.6-2c-0.2-1.2,0.3-2.1,1-2.6c0.9-0.7,1.5-1.7,1.6-3c0.7-7.3,4.8-13.3,10.6-16.5l0,4.5c0,1.1,0.9,2,1.9,2
				c0,0,0,0,0,0c1.1,0,1.9-0.9,1.9-2l0-6.1c1.2-0.4,2.5-0.6,3.8-0.7l0,8.8c0,1.1,0.9,2,1.9,2c0,0,0,0,0,0c1.1,0,1.9-0.9,1.9-2l0-8.8
				c1.3,0.1,2.6,0.4,3.8,0.8l0,6.1c0,1.1,0.9,2,1.9,2c0,0,0,0,0,0c1.1,0,1.9-0.9,1.9-2l0-4.5c5.8,3.2,10,9.2,10.6,16.5
				c0.1,1.2,0.7,2.3,1.6,3v0C78.4,34.3,79,35.2,78.8,36.5z"/>
		</g>
	</g>
</g>
</svg>
