<?xml version="1.0" encoding="utf-8"?>
<!-- Generator: Adobe Illustrator 22.0.1, SVG Export Plug-In . SVG Version: 6.00 Build 0)  -->
<svg version="1.1" id="Layer_1" xmlns="http://www.w3.org/2000/svg" xmlns:xlink="http://www.w3.org/1999/xlink" x="0px" y="0px"
	 viewBox="0 0 112 112" style="enable-background:new 0 0 112 112;" xml:space="preserve">
<style type="text/css">
	.st0{fill:#111111;}
</style>
<path class="st0" d="M69.4,59.6c9.4-7.4,11-21.1,3.6-30.5c-7.4-9.4-21.1-11-30.5-3.6s-11,21.1-3.6,30.5c1.1,1.4,2.3,2.6,3.6,3.6
	c-12.4,5-21,16.3-22.5,29.6c-0.2,2,1.2,3.8,3.2,4c2,0.2,3.8-1.2,4-3.2c1.8-15.9,16.1-27.3,32-25.5c13.4,1.5,24,12.1,25.5,25.5
	c0.2,1.8,1.8,3.2,3.6,3.2h0.4c2-0.2,3.4-2,3.2-4C90.5,75.9,81.8,64.5,69.4,59.6z M56,57c-8,0-14.5-6.5-14.5-14.5S48,28.1,56,28.1
	s14.5,6.5,14.5,14.5S64,57,56,57z"/>
</svg>
