<?xml version="1.0" encoding="utf-8"?>
<!-- Generator: Adobe Illustrator 22.0.1, SVG Export Plug-In . SVG Version: 6.00 Build 0)  -->
<svg version="1.1" id="Layer_1" xmlns="http://www.w3.org/2000/svg" xmlns:xlink="http://www.w3.org/1999/xlink" x="0px" y="0px"
	 viewBox="0 0 130 50" style="enable-background:new 0 0 130 50;" xml:space="preserve">
<style type="text/css">
	.st0{fill:#FFFFFF;}
</style>
<g>
	<g>
		<path class="st0" d="M117.3,21.8c0-0.3-0.4-0.3-0.5-0.3h-0.6v0.7h0.5C116.8,22.2,117.3,22.2,117.3,21.8z"/>
		<path class="st0" d="M90.8,22.6c-0.1-0.1-0.2-0.1-1.2-0.1h-3.1v2.1h3.1c1.1,0,1.1,0,1.2-0.2c0.2-0.1,0.2-0.4,0.2-0.9
			C91.1,23,91,22.7,90.8,22.6z"/>
		<path class="st0" d="M111.2,22.6c-0.1-0.1-0.2-0.1-1.2-0.1h-3.1v2.1h3.1c1.1,0,1.1,0,1.2-0.2c0.2-0.1,0.2-0.4,0.2-0.9
			C111.5,23,111.4,22.7,111.2,22.6z"/>
		<path class="st0" d="M119.6,18.7H9.7c-1.2,0-2.2,1-2.2,2.2v7.6c0,1.2,1,2.2,2.2,2.2h15.9v5.8c0,0,0.5,1.2,2.2,1.2
			c1.8,0,2.5-1.2,2.5-1.2v-5.8h89.3c1.2,0,2.2-1,2.2-2.2v-7.6C121.8,19.7,120.8,18.7,119.6,18.7z M24,28.3c-0.5,0.6-1.2,0.7-3.6,0.7
			h-5.2v-8.6h5.2c1.8,0,2.1,0,2.7,0.2c0.7,0.2,1.2,0.7,1.4,1.5c0.2,0.6,0.2,1.1,0.2,2.6C24.7,26.8,24.5,27.7,24,28.3z M29.4,24.4
			L27,26.3l0.6,0c0,0,1-0.8,1.3-1c0.2-0.1,0.4-0.1,0.5-0.1v2.3L27,29.4l0.6,0c0,0,1-0.8,1.3-1c0.2-0.1,0.4-0.1,0.5-0.1v2.3L27,32.6
			l0.6,0c0,0,1-0.8,1.3-1c0.2-0.1,0.4-0.1,0.5-0.1v2.3L27,35.7l0.6,0c0,0,1-0.8,1.3-1c0.2-0.1,0.4-0.1,0.5-0.1v1.2
			c0,0.5-0.5,0.8-1.1,0.8h-1c-0.6,0-1.1-0.4-1.1-0.8V35l2.5-1.9l-0.6,0c0,0-1,0.8-1.3,1c-0.2,0.1-0.4,0.1-0.5,0.1v-2.3l2.5-1.9
			l-0.6,0c0,0-1,0.8-1.3,1c-0.2,0.1-0.4,0.1-0.5,0.1v-2.3l2.5-1.9l-0.6,0c0,0-1,0.8-1.3,1c-0.2,0.1-0.4,0.1-0.5,0.1v-2.3l2.5-1.9
			l-0.6,0c0,0-1,0.8-1.3,1c-0.2,0.1-0.4,0.1-0.5,0.1v-4.4l3.1,0V24.4z M38.3,28.9c-0.4,0.2-1.3,0.3-3.5,0.3c-2.2,0-3.1-0.1-3.6-0.5
			c-0.5-0.4-0.7-0.9-0.7-2.1v-0.4h2.1c0,0.5,0,0.7,0.2,0.8c0.2,0.2,0.4,0.2,2,0.2c2.3,0,2.3,0,2.3-0.8c0-0.5-0.2-0.6-0.9-0.7
			l-1.7-0.1l-1.2-0.1l-0.6,0c-1.8-0.1-2.3-0.6-2.3-2.5c0-1.6,0.4-2.4,1.4-2.6c0.4-0.1,1.4-0.2,3.1-0.2c2.1,0,2.8,0.1,3.3,0.5
			c0.4,0.3,0.6,0.9,0.6,1.9c0,0.1,0,0.2,0,0.4H37c0-0.5-0.1-0.6-0.2-0.7c-0.2-0.1-0.5-0.2-2-0.2c-1.8,0-2,0.1-2,0.7
			c0,0.3,0.1,0.5,0.3,0.6c0.2,0.1,0.8,0.1,2.3,0.2c2.4,0.1,2.8,0.2,3.3,0.5c0.5,0.4,0.7,1,0.7,2.2C39.4,27.8,39.1,28.5,38.3,28.9z
			 M49.1,28.8c-0.6,0.2-1.4,0.3-3,0.3c-2.8,0-3.7-0.1-4.3-0.5c-0.5-0.3-0.7-0.8-0.8-1.7c0-0.4-0.1-1.1-0.1-2.2c0-1.9,0-2.6,0.2-3.1
			c0.4-1.2,1.2-1.4,4.9-1.4c1.9,0,2.6,0.1,3.1,0.4c0.6,0.4,0.8,1,0.8,2.4v0.4h-2.2c0-0.6,0-0.7-0.2-0.8c-0.2-0.2-0.8-0.2-2.2-0.2
			c-1.4,0-1.8,0.1-2,0.3c-0.3,0.3-0.3,0.8-0.3,2.1c0,2.2,0,2.2,2.3,2.2c2.4,0,2.4,0,2.4-1.3h2.2c0,0.5,0,0.7,0,0.8
			C50.2,27.9,49.9,28.5,49.1,28.8z M61,28.5c-0.5,0.5-1.2,0.6-4.2,0.6c-3,0-3.7-0.1-4.2-0.6c-0.6-0.5-0.7-1.4-0.7-3.9
			c0-2.4,0.2-3.3,0.7-3.8c0.5-0.5,1.2-0.6,4.2-0.6c3,0,3.7,0.1,4.2,0.6c0.5,0.5,0.7,1.4,0.7,3.8C61.7,27.2,61.5,28,61,28.5z
			 M69.8,29h-3.3l-3.5-8.6h2.4l2.6,6.4h0.4l2.6-6.4h2.4L69.8,29z M82.6,29h-8v-8.6h7.9v2h-5.8v1.3h5.5v1.9h-5.5v1.4h5.8V29z
			 M93.2,28.2V29h-2.1v-0.5c0-1,0-1.3-0.2-1.5c-0.2-0.2-0.3-0.2-1.2-0.2h-3.1V29h-2.2v-8.6h5.3c2.5,0,2.5,0,2.9,0.3
			c0.5,0.4,0.7,1,0.7,2.5c0,1.3-0.1,1.8-0.5,2.1c-0.2,0.2-0.4,0.3-0.8,0.4C93,25.8,93.2,26.2,93.2,28.2z M103,29h-8v-8.6h7.9v2h-5.8
			v1.3h5.5v1.9h-5.5v1.4h5.8V29z M113.6,28.2V29h-2.1v-0.5c0-1,0-1.3-0.2-1.5c-0.2-0.2-0.3-0.2-1.2-0.2h-3.1V29h-2.2v-8.6h5.3
			c2.5,0,2.5,0,2.9,0.3c0.5,0.4,0.7,1,0.7,2.5c0,1.3-0.1,1.8-0.5,2.1c-0.2,0.2-0.4,0.3-0.8,0.4C113.4,25.8,113.6,26.2,113.6,28.2z
			 M116.7,24.1c-1,0-1.8-0.8-1.8-1.8c0-1,0.8-1.8,1.8-1.8c1,0,1.8,0.8,1.8,1.8C118.5,23.3,117.7,24.1,116.7,24.1z"/>
		<path class="st0" d="M56.7,22.5c-2.1,0-2.3,0-2.6,0.5c-0.1,0.3-0.2,0.8-0.2,1.9c0,1.1,0.1,1.4,0.3,1.7c0.3,0.3,0.6,0.3,2.4,0.3
			c1.7,0,2.1-0.1,2.4-0.3c0.2-0.2,0.3-0.6,0.3-1.7c0-1.3-0.1-1.8-0.3-2.1C59,22.5,58.7,22.5,56.7,22.5z"/>
		<path class="st0" d="M20.4,22.5h-3v4.3h3c2,0,2.1-0.1,2.1-2.1c0-1.1-0.1-1.5-0.3-1.8C22,22.6,21.7,22.5,20.4,22.5z"/>
		<path class="st0" d="M116.7,20.7c-0.9,0-1.6,0.7-1.6,1.6c0,0.9,0.7,1.6,1.6,1.6c0.9,0,1.6-0.7,1.6-1.6
			C118.3,21.4,117.6,20.7,116.7,20.7z M117.3,23.3c0-0.1-0.1-0.1-0.1-0.4c0-0.3-0.1-0.5-0.5-0.5h-0.5v0.9h-0.3v-2.1h0.9
			c0.1,0,0.7,0,0.7,0.6c0,0.2-0.1,0.4-0.4,0.5v0c0.3,0.1,0.3,0.3,0.4,0.5c0,0.4,0,0.4,0.1,0.5H117.3z"/>
	</g>
	<g>
		<path class="st0" d="M37.7,33.4h2.3v0.4h-1.9V35h1.7v0.4h-1.7v1.3H40v0.4h-2.4V33.4z"/>
		<path class="st0" d="M42.3,35.2l-1.2-1.7h0.6l1,1.4l1-1.4h0.5l-1.2,1.7l1.3,1.9h-0.6l-1.1-1.6l-1.1,1.6H41L42.3,35.2z"/>
		<path class="st0" d="M48,34.2c-0.2-0.3-0.6-0.4-0.9-0.4c-0.8,0-1.4,0.7-1.4,1.5c0,0.8,0.6,1.5,1.4,1.5c0.4,0,0.8-0.2,1.1-0.5
			l0.3,0.3c-0.3,0.4-0.8,0.6-1.4,0.6c-1,0-1.9-0.8-1.9-1.9c0-1.1,0.8-1.9,1.9-1.9c0.5,0,1,0.2,1.3,0.6L48,34.2z"/>
		<path class="st0" d="M49.9,33.4h2.3v0.4h-1.9V35H52v0.4h-1.7v1.3h1.9v0.4h-2.4V33.4z"/>
		<path class="st0" d="M53.7,33.4h0.4v3.2h1.7v0.4h-2.1V33.4z"/>
		<path class="st0" d="M57,33.4h0.4v3.2h1.7v0.4H57V33.4z"/>
		<path class="st0" d="M60.4,33.4h2.3v0.4h-1.9V35h1.7v0.4h-1.7v1.3h1.9v0.4h-2.4V33.4z"/>
		<path class="st0" d="M64.2,33.4h0.5l2.1,3h0v-3h0.4v3.6h-0.5l-2.1-3h0v3h-0.4V33.4z"/>
		<path class="st0" d="M71.5,34.2c-0.2-0.3-0.6-0.4-0.9-0.4c-0.8,0-1.4,0.7-1.4,1.5c0,0.8,0.6,1.5,1.4,1.5c0.4,0,0.8-0.2,1.1-0.5
			l0.3,0.3c-0.3,0.4-0.8,0.6-1.4,0.6c-1,0-1.9-0.8-1.9-1.9c0-1.1,0.8-1.9,1.9-1.9c0.5,0,1,0.2,1.3,0.6L71.5,34.2z"/>
		<path class="st0" d="M73.3,33.4h2.3v0.4h-1.9V35h1.7v0.4h-1.7v1.3h1.9v0.4h-2.4V33.4z"/>
		<path class="st0" d="M81.1,34.1c-0.1-0.2-0.4-0.3-0.7-0.3c-0.4,0-0.8,0.2-0.8,0.6c0,0.3,0.2,0.5,0.8,0.7c0.6,0.2,1.1,0.4,1.1,1.1
			c0,0.7-0.6,1.1-1.3,1.1c-0.4,0-0.9-0.1-1.1-0.5l0.4-0.3c0.2,0.3,0.5,0.4,0.8,0.4c0.4,0,0.8-0.2,0.8-0.6c0-0.4-0.3-0.5-1-0.7
			c-0.5-0.2-0.9-0.4-0.9-1c0-0.7,0.6-1,1.2-1c0.4,0,0.8,0.1,1,0.4L81.1,34.1z"/>
		<path class="st0" d="M83,33.4h0.4v3.6H83V33.4z"/>
		<path class="st0" d="M85.1,33.4h0.5l2.1,3h0v-3h0.4v3.6h-0.5l-2.1-3h0v3h-0.4V33.4z"/>
		<path class="st0" d="M92.4,34.2c-0.2-0.3-0.6-0.4-0.9-0.4c-0.8,0-1.4,0.7-1.4,1.5c0,0.8,0.6,1.5,1.4,1.5c0.4,0,0.8-0.2,1.1-0.5
			l0.3,0.3c-0.3,0.4-0.8,0.6-1.4,0.6c-1,0-1.9-0.8-1.9-1.9c0-1.1,0.8-1.9,1.9-1.9c0.5,0,1,0.2,1.3,0.6L92.4,34.2z"/>
		<path class="st0" d="M94.2,33.4h2.3v0.4h-1.9V35h1.7v0.4h-1.7v1.3h1.9v0.4h-2.4V33.4z"/>
		<path class="st0" d="M101.6,37.1h-0.4V34h0l-0.7,0.6l-0.3-0.3l1-0.8h0.4V37.1z"/>
		<path class="st0" d="M105.2,35.6L105.2,35.6c-0.1,0.1-0.3,0.1-0.5,0.1c-0.6,0-1.1-0.5-1.1-1.1c0-0.7,0.5-1.1,1.2-1.1
			c0.7,0,1.2,0.4,1.2,1.1c0,0.4-0.1,0.7-0.3,1l-1,1.5h-0.5L105.2,35.6z M105.6,34.5c0-0.5-0.3-0.8-0.8-0.8c-0.4,0-0.8,0.3-0.8,0.8
			c0,0.5,0.3,0.8,0.8,0.8C105.3,35.3,105.6,35,105.6,34.5z"/>
		<path class="st0" d="M108.9,35.6L108.9,35.6c-0.1,0.1-0.3,0.1-0.5,0.1c-0.6,0-1.1-0.5-1.1-1.1c0-0.7,0.5-1.1,1.2-1.1
			c0.7,0,1.2,0.4,1.2,1.1c0,0.4-0.1,0.7-0.3,1l-1,1.5h-0.5L108.9,35.6z M109.3,34.5c0-0.5-0.3-0.8-0.8-0.8c-0.4,0-0.8,0.3-0.8,0.8
			c0,0.5,0.3,0.8,0.8,0.8C108.9,35.3,109.3,35,109.3,34.5z"/>
		<path class="st0" d="M111.7,35h0.1c0.4,0,0.8-0.1,0.8-0.6c0-0.4-0.3-0.6-0.6-0.6c-0.3,0-0.5,0.1-0.7,0.4L111,34
			c0.2-0.4,0.6-0.6,1.1-0.6c0.6,0,1.1,0.3,1.1,1c0,0.4-0.3,0.7-0.6,0.8v0c0.5,0.1,0.7,0.5,0.7,0.9c0,0.7-0.6,1.1-1.2,1.1
			c-0.6,0-1-0.2-1.2-0.8l0.4-0.1c0.1,0.4,0.3,0.5,0.7,0.5c0.4,0,0.7-0.3,0.7-0.7c0-0.5-0.5-0.7-0.9-0.7h-0.1V35z"/>
	</g>
	<g>
		<g>
			<path class="st0" d="M122.8,40.1H7.2c-4,0-7.2-3.2-7.2-7.2V17.1c0-4,3.2-7.2,7.2-7.2h115.6c4,0,7.2,3.2,7.2,7.2v15.8
				C130,36.9,126.8,40.1,122.8,40.1z M7.2,10.6c-3.6,0-6.5,2.9-6.5,6.5v15.8c0,3.6,2.9,6.5,6.5,6.5h115.6c3.6,0,6.5-2.9,6.5-6.5
				V17.1c0-3.6-2.9-6.5-6.5-6.5H7.2z"/>
		</g>
	</g>
</g>
</svg>
