<?xml version="1.0" encoding="utf-8"?>
<!-- Generator: Adobe Illustrator 22.0.1, SVG Export Plug-In . SVG Version: 6.00 Build 0)  -->
<svg version="1.1" id="Layer_1" xmlns="http://www.w3.org/2000/svg" xmlns:xlink="http://www.w3.org/1999/xlink" x="0px" y="0px"
	 viewBox="0 0 198 134" style="enable-background:new 0 0 198 134;" xml:space="preserve">
<style type="text/css">
	.st0{fill:#2E2E2E;}
</style>
<g>
	<g>
		<g>
			<path class="st0" d="M151.6,111.2h-9.6c-0.6,0-1.1-0.5-1.1-1.1V34.9c0-0.6,0.5-1.1,1.1-1.1h9.6c0.6,0,1.1,0.5,1.1,1.1v75.2
				C152.7,110.7,152.2,111.2,151.6,111.2z M143.1,109h7.4V36h-7.4V109z"/>
		</g>
		<g>
			<path class="st0" d="M151.6,118.1h-9.6c-0.6,0-1.1-0.5-1.1-1.1v-6.9c0-0.6,0.5-1.1,1.1-1.1h9.6c0.6,0,1.1,0.5,1.1,1.1v6.9
				C152.7,117.6,152.2,118.1,151.6,118.1z M143.1,115.8h7.4v-4.6h-7.4V115.8z"/>
		</g>
		<g>
			<path class="st0" d="M151.6,36C151.6,36,151.6,36,151.6,36h-9.6c-0.4,0-0.8-0.2-1-0.6c-0.2-0.3-0.2-0.8,0-1.1l4.8-8.3
				c0.2-0.3,0.6-0.6,1-0.6c0.4,0,0.8,0.2,1,0.6l4.7,8.2c0.1,0.2,0.2,0.4,0.2,0.7C152.7,35.5,152.2,36,151.6,36z M143.9,33.7h5.8
				l-2.9-5L143.9,33.7z"/>
		</g>
	</g>
	<g>
		<g>
			<g>
				<path class="st0" d="M125.2,126.6H50.6c-2.9,0-5.2-2.3-5.2-5.2V25.1c0-2.9,2.3-5.2,5.2-5.2h18.4c0.6,0,1.1,0.5,1.1,1.1
					c0,0.6-0.5,1.1-1.1,1.1H50.6c-1.7,0-3,1.3-3,3v96.3c0,1.7,1.3,3,3,3h74.6c1.7,0,3-1.3,3-3V25.1c0-1.7-1.3-3-3-3h-18.4
					c-0.6,0-1.1-0.5-1.1-1.1c0-0.6,0.5-1.1,1.1-1.1h18.4c2.9,0,5.2,2.3,5.2,5.2v96.3C130.4,124.3,128.1,126.6,125.2,126.6z"/>
			</g>
			<g>
				<path class="st0" d="M122.4,116.5H53.3c-0.6,0-1.1-0.5-1.1-1.1V28.1c0-0.6,0.5-1.1,1.1-1.1h14.9c0.6,0,1.1,0.5,1.1,1.1
					c0,0.6-0.5,1.1-1.1,1.1H54.4v85.1h66.9V29.2h-13.8c-0.6,0-1.1-0.5-1.1-1.1c0-0.6,0.5-1.1,1.1-1.1h14.9c0.6,0,1.1,0.5,1.1,1.1
					v87.4C123.5,116,123,116.5,122.4,116.5z"/>
			</g>
			<g>
				<path class="st0" d="M107.5,31.5H68.2c-0.6,0-1.1-0.5-1.1-1.1v-6c0-5.5,4.5-9.9,9.9-9.9h2.9c0.5-4.4,3.8-7.9,8-7.9
					c4.1,0,7.5,3.5,8,7.9h2.9c5.5,0,9.9,4.5,9.9,9.9v6C108.6,31,108.1,31.5,107.5,31.5z M69.3,29.3h37.1v-4.8c0-4.3-3.5-7.7-7.7-7.7
					h-3.9c-0.3,0-0.6-0.1-0.8-0.3c-0.2-0.2-0.3-0.5-0.3-0.8c0,0,0-0.1,0-0.1c0-3.7-2.6-6.7-5.8-6.7c-3.2,0-5.8,3-5.8,6.7
					c0,0,0,0.1,0,0.1c0,0.6-0.5,1.1-1.1,1.1H77c-4.3,0-7.7,3.5-7.7,7.7V29.3z M90,16.7h-4.3c-0.6,0-1.1-0.5-1.1-1.1c0,0,0-0.1,0-0.1
					c0-2.3,1.5-4.2,3.3-4.2c1.8,0,3.3,1.9,3.3,4.2c0,0,0,0.1,0,0.2C91.1,16.3,90.6,16.7,90,16.7z M87,14.5h1.8c-0.2-0.6-0.6-1-0.9-1
					C87.6,13.5,87.2,13.9,87,14.5z"/>
			</g>
			<g>
				<path class="st0" d="M79.5,58.8H61.1c-0.6,0-1.1-0.5-1.1-1.1V39.3c0-0.6,0.5-1.1,1.1-1.1h18.4c0.6,0,1.1,0.5,1.1,1.1
					c0,0.6-0.5,1.1-1.1,1.1H62.2v16.2h16.2V45.7c0-0.6,0.5-1.1,1.1-1.1c0.6,0,1.1,0.5,1.1,1.1v12C80.6,58.3,80.1,58.8,79.5,58.8z"/>
			</g>
			<g>
				<path class="st0" d="M70.6,57.2c-0.7,0-1.4-0.2-1.9-0.7l-7.1-5.9c-0.5-0.4-0.5-1.1-0.1-1.6l2.4-2.8c0.2-0.2,0.5-0.4,0.8-0.4
					c0.3,0,0.6,0.1,0.8,0.3l4.7,3.9l8.4-10.8c0.2-0.2,0.4-0.4,0.7-0.4c0.3,0,0.6,0,0.8,0.2l2.9,2.3c0.5,0.4,0.6,1.1,0.2,1.6L72.9,56
					c-0.5,0.6-1.2,1-2,1.1C70.8,57.2,70.7,57.2,70.6,57.2z M63.9,49.6l6.2,5.2c0.2,0.1,0.4,0.2,0.6,0.2c0.2,0,0.4-0.1,0.5-0.3
					l9.6-12.4l-1.2-0.9l-8.4,10.8c-0.2,0.2-0.5,0.4-0.8,0.4c-0.3,0-0.6-0.1-0.8-0.3l-4.7-3.9L63.9,49.6z"/>
			</g>
			<g>
				<path class="st0" d="M79.5,83.4H61.1c-0.6,0-1.1-0.5-1.1-1.1V63.8c0-0.6,0.5-1.1,1.1-1.1h18.4c0.6,0,1.1,0.5,1.1,1.1
					c0,0.6-0.5,1.1-1.1,1.1H62.2v16.2h16.2V70.3c0-0.6,0.5-1.1,1.1-1.1c0.6,0,1.1,0.5,1.1,1.1v12C80.6,82.9,80.1,83.4,79.5,83.4z"/>
			</g>
			<g>
				<path class="st0" d="M70.6,81.8c-0.7,0-1.4-0.2-1.9-0.7l-7.1-5.9c-0.5-0.4-0.5-1.1-0.1-1.6l2.4-2.8c0.2-0.2,0.5-0.4,0.8-0.4
					c0.3,0,0.6,0.1,0.8,0.3l4.7,3.9l8.4-10.8c0.2-0.2,0.4-0.4,0.7-0.4c0.3,0,0.6,0,0.8,0.2l2.9,2.3c0.5,0.4,0.6,1.1,0.2,1.6
					L72.9,80.6c-0.5,0.6-1.2,1-2,1.1C70.8,81.7,70.7,81.8,70.6,81.8z M63.9,74.2l6.2,5.2c0.2,0.1,0.4,0.2,0.6,0.2
					c0.2,0,0.4-0.1,0.5-0.3l9.6-12.4L79.6,66l-8.4,10.8c-0.2,0.2-0.5,0.4-0.8,0.4c-0.3,0-0.6-0.1-0.8-0.3l-4.7-3.9L63.9,74.2z"/>
			</g>
			<g>
				<path class="st0" d="M79.5,107.7H61.1c-0.6,0-1.1-0.5-1.1-1.1V88.1c0-0.6,0.5-1.1,1.1-1.1h18.4c0.6,0,1.1,0.5,1.1,1.1v18.4
					C80.6,107.2,80.1,107.7,79.5,107.7z M62.2,105.5h16.2V89.2H62.2V105.5z"/>
			</g>
		</g>
		<g>
			<path class="st0" d="M115.1,45.4H89.7c-0.6,0-1.1-0.5-1.1-1.1c0-0.6,0.5-1.1,1.1-1.1h25.4c0.6,0,1.1,0.5,1.1,1.1
				C116.2,44.9,115.7,45.4,115.1,45.4z"/>
		</g>
		<g>
			<path class="st0" d="M115.1,54.3H89.7c-0.6,0-1.1-0.5-1.1-1.1c0-0.6,0.5-1.1,1.1-1.1h25.4c0.6,0,1.1,0.5,1.1,1.1
				C116.2,53.8,115.7,54.3,115.1,54.3z"/>
		</g>
		<g>
			<path class="st0" d="M115.1,69.7H89.7c-0.6,0-1.1-0.5-1.1-1.1c0-0.6,0.5-1.1,1.1-1.1h25.4c0.6,0,1.1,0.5,1.1,1.1
				C116.2,69.2,115.7,69.7,115.1,69.7z"/>
		</g>
		<g>
			<path class="st0" d="M115.1,78.6H89.7c-0.6,0-1.1-0.5-1.1-1.1c0-0.6,0.5-1.1,1.1-1.1h25.4c0.6,0,1.1,0.5,1.1,1.1
				C116.2,78.1,115.7,78.6,115.1,78.6z"/>
		</g>
		<g>
			<path class="st0" d="M115.1,94H89.7c-0.6,0-1.1-0.5-1.1-1.1c0-0.6,0.5-1.1,1.1-1.1h25.4c0.6,0,1.1,0.5,1.1,1.1
				C116.2,93.5,115.7,94,115.1,94z"/>
		</g>
		<g>
			<path class="st0" d="M115.1,102.9H89.7c-0.6,0-1.1-0.5-1.1-1.1c0-0.6,0.5-1.1,1.1-1.1h25.4c0.6,0,1.1,0.5,1.1,1.1
				C116.2,102.4,115.7,102.9,115.1,102.9z"/>
		</g>
	</g>
</g>
</svg>
