<?xml version="1.0" encoding="utf-8"?>
<!-- Generator: Adobe Illustrator 22.0.1, SVG Export Plug-In . SVG Version: 6.00 Build 0)  -->
<svg version="1.1" id="Layer_1" xmlns="http://www.w3.org/2000/svg" xmlns:xlink="http://www.w3.org/1999/xlink" x="0px" y="0px"
	 viewBox="0 0 198 134" style="enable-background:new 0 0 198 134;" xml:space="preserve">
<style type="text/css">
	.st0{fill:none;}
	.st1{fill:none;stroke:#282D33;stroke-width:2.4;}
	.st2{fill:none;stroke:#282D33;stroke-width:2.4;stroke-miterlimit:10;}
</style>
<rect id="Rectangle_85" class="st0" width="198" height="134"/>
<path class="st1" d="M93.3,86.7l-7.7,7.8l-10.3,10.5c2.1,6.9,0.4,14.8-5,20.2c-5.7,5.8-14,7.3-21.1,4.7l12.1-12.2l-2.5-9.5l-9.4-2.5
	l-12.1,12.2c-2.6-7.2-1.1-15.6,4.6-21.3c5.4-5.5,13.1-7.2,20-5.1l10.3-10.5l8.4-8.5"/>
<path class="st1" d="M99.7,53.1l11.7-11.8l10.3-10.5c-2.1-6.9-0.4-14.8,5-20.2c5.7-5.8,14-7.3,21.1-4.7l-12.1,12.2l2.5,9.5l9.4,2.5
	L159.7,18c2.6,7.2,1.1,15.6-4.6,21.3c-5.4,5.5-13.1,7.2-20,5.1l-10.3,10.5l-12.2,12.3"/>
<polyline class="st1" points="140.1,121.6 142.4,123.9 161,129.5 155.5,110.6 153.2,108.3 "/>
<line class="st1" x1="59.7" y1="26.9" x2="144.9" y2="113.1"/>
<path class="st1" d="M42.7,23l-5.3-5.4c-0.7-0.7-0.5-1.8,0.3-2.7L47.9,4.6c0.8-0.8,2-0.9,2.6-0.3l5.3,5.4"/>
<polyline class="st1" points="68.7,18.7 59.2,9.2 42.1,26.5 51.6,36.1 "/>
<polygon class="st2" points="154.4,107.3 138.9,122.8 52.5,34.1 66.7,19.9 "/>
</svg>
