<svg xmlns="http://www.w3.org/2000/svg" width="140" height="131.481" viewBox="0 0 140 131.481">
  <g id="Group_715" data-name="Group 715" transform="translate(0 0.015)">
    <g id="Group_712" data-name="Group 712" transform="translate(0 31.464)">
      <path id="Path_145" data-name="Path 145" d="M34.557,44.8A11.957,11.957,0,1,0,46.513,56.757,12.123,12.123,0,0,0,34.557,44.8Z" transform="translate(9.569 -12.488)" fill="#444" fill-rule="evenodd"/>
      <path id="Path_146" data-name="Path 146" d="M84.551,59.251H79.569a5.529,5.529,0,0,1-4.84-3.559l-1.423-3.559A5.181,5.181,0,0,1,74.16,46.3l3.559-3.559a3.608,3.608,0,0,0,0-5.124l-4.84-4.84a3.608,3.608,0,0,0-5.124,0L64.2,36.192a5.181,5.181,0,0,1-5.836.854L54.8,35.622a5.425,5.425,0,0,1-3.559-4.84V25.8a3.768,3.768,0,0,0-3.7-3.7H40.567a3.768,3.768,0,0,0-3.7,3.7v4.982a5.529,5.529,0,0,1-3.559,4.84l-3.559,1.423a5.181,5.181,0,0,1-5.836-.854l-3.559-3.559a3.608,3.608,0,0,0-5.124,0l-4.7,4.982a3.608,3.608,0,0,0,0,5.124L14.092,46.3a5.181,5.181,0,0,1,.854,5.836l-1.423,3.559a5.768,5.768,0,0,1-4.84,3.559H3.7a3.768,3.768,0,0,0-3.7,3.7v6.975a3.768,3.768,0,0,0,3.7,3.7H8.683a5.529,5.529,0,0,1,4.84,3.559l1.423,3.559a5.181,5.181,0,0,1-.854,5.836l-3.559,3.559a3.608,3.608,0,0,0,0,5.124l4.84,4.84a3.608,3.608,0,0,0,5.124,0l3.559-3.559a5.181,5.181,0,0,1,5.836-.854l3.559,1.423a5.425,5.425,0,0,1,3.559,4.84v4.982a3.768,3.768,0,0,0,3.7,3.7h6.975a3.768,3.768,0,0,0,3.7-3.7v-4.982a5.529,5.529,0,0,1,3.559-4.84L58.5,95.691a5.181,5.181,0,0,1,5.836.854L67.9,100.1a3.608,3.608,0,0,0,5.124,0l4.84-4.84a3.608,3.608,0,0,0,0-5.124L74.3,86.581a5.181,5.181,0,0,1-.854-5.836l1.423-3.559a5.425,5.425,0,0,1,4.84-3.559h4.982a3.768,3.768,0,0,0,3.7-3.7V62.952A3.891,3.891,0,0,0,84.551,59.251ZM44.126,86.3A20.07,20.07,0,1,1,64.2,66.226,20.047,20.047,0,0,1,44.126,86.3Z" transform="translate(0 -22.1)" fill="#444" fill-rule="evenodd"/>
    </g>
    <g id="Group_713" data-name="Group 713" transform="translate(84.188 75.511)">
      <path id="Path_147" data-name="Path 147" d="M73.883,72.035a7.851,7.851,0,1,0,10.249-4.27A7.851,7.851,0,0,0,73.883,72.035Z" transform="translate(-53.165 -47.047)" fill="#444" fill-rule="evenodd"/>
      <path id="Path_148" data-name="Path 148" d="M92.816,54.547l-1.139,2.989A3.383,3.383,0,0,1,88.4,59.529H85.841a3.58,3.58,0,0,1-3.416-1.993l-1.281-2.989a2.338,2.338,0,0,0-3.132-1.281l-4.27,1.708a2.338,2.338,0,0,0-1.281,3.132l1.281,2.989a3.49,3.49,0,0,1-.854,3.843l-1.85,1.85a3.816,3.816,0,0,1-3.843,1L64.205,66.5a2.359,2.359,0,0,0-3.132,1.281l-1.708,4.27a2.359,2.359,0,0,0,1.281,3.132l2.989,1.281a3.383,3.383,0,0,1,1.993,3.274V82.3a3.58,3.58,0,0,1-1.993,3.416L60.647,87a2.338,2.338,0,0,0-1.281,3.132l1.708,4.27a2.338,2.338,0,0,0,3.132,1.281L67.194,94.4a3.49,3.49,0,0,1,3.843.854l1.85,1.85a3.816,3.816,0,0,1,1,3.843L72.6,103.939a2.359,2.359,0,0,0,1.281,3.132l4.27,1.708a2.359,2.359,0,0,0,3.132-1.281l1.281-2.989a3.383,3.383,0,0,1,3.274-1.993H88.4a3.261,3.261,0,0,1,3.274,1.993l1.281,2.989a2.338,2.338,0,0,0,3.132,1.281l4.27-1.708a2.338,2.338,0,0,0,1.281-3.132l-1.281-2.989a3.49,3.49,0,0,1,.854-3.843l1.85-1.85a3.816,3.816,0,0,1,3.843-1l2.989,1.281a2.359,2.359,0,0,0,3.132-1.281l1.708-4.27a2.359,2.359,0,0,0-1.281-3.132l-2.989-1.281a3.383,3.383,0,0,1-1.993-3.274V79.741a3.58,3.58,0,0,1,1.993-3.416l2.989-1.281a2.338,2.338,0,0,0,1.281-3.132l-1.708-4.27a2.338,2.338,0,0,0-3.132-1.281l-2.989,1.281a3.49,3.49,0,0,1-3.843-.854l-1.85-1.85a3.816,3.816,0,0,1-1-3.843l1.281-2.989a2.359,2.359,0,0,0-1.281-3.132l-4.27-1.708A2.338,2.338,0,0,0,92.816,54.547ZM99.364,86A13.216,13.216,0,1,1,92.1,68.781,13.324,13.324,0,0,1,99.364,86Z" transform="translate(-59.145 -53.045)" fill="#444" fill-rule="evenodd"/>
    </g>
    <g id="Group_714" data-name="Group 714" transform="translate(67.733 -0.015)">
      <path id="Path_149" data-name="Path 149" d="M58.729,15.8a5.806,5.806,0,1,0,6.832-4.555A5.732,5.732,0,0,0,58.729,15.8Z" transform="translate(-42.907 4.723)" fill="#444" fill-rule="evenodd"/>
      <path id="Path_150" data-name="Path 150" d="M69.527,1.43,69.1,3.85a2.582,2.582,0,0,1-2.135,1.993l-1.85.427a2.5,2.5,0,0,1-2.7-1L60.987,3.28a1.822,1.822,0,0,0-2.562-.427L55.578,4.7a1.822,1.822,0,0,0-.427,2.562l1.423,1.993a2.345,2.345,0,0,1-.142,2.847l-1,1.566a2.73,2.73,0,0,1-2.562,1.281l-2.42-.427a1.887,1.887,0,0,0-2.135,1.423l-.712,3.274a1.887,1.887,0,0,0,1.423,2.135l2.42.427a2.582,2.582,0,0,1,1.993,2.135l.427,1.85a2.5,2.5,0,0,1-1,2.7L50.88,29.9a1.822,1.822,0,0,0-.427,2.562l1.85,2.847a1.822,1.822,0,0,0,2.562.427l1.993-1.423a2.346,2.346,0,0,1,2.847.142l1.566,1a2.73,2.73,0,0,1,1.281,2.562l-.427,2.42a1.887,1.887,0,0,0,1.423,2.135l3.274.712a1.887,1.887,0,0,0,2.135-1.423l.427-2.42a2.582,2.582,0,0,1,2.135-1.993l1.85-.427a2.5,2.5,0,0,1,2.7,1L77.5,40a1.822,1.822,0,0,0,2.562.427l2.847-1.85a1.822,1.822,0,0,0,.427-2.562l-1.423-1.993a2.58,2.58,0,0,1,.142-2.847l1-1.566a2.73,2.73,0,0,1,2.562-1.281l2.42.427a1.887,1.887,0,0,0,2.135-1.423l.712-3.274a1.887,1.887,0,0,0-1.423-2.135l-2.42-.427a2.582,2.582,0,0,1-1.993-2.135l-.427-1.85a2.5,2.5,0,0,1,1-2.7L87.6,13.387a1.805,1.805,0,0,0,.427-2.42L86.181,8.12a1.822,1.822,0,0,0-2.562-.427L81.626,9.116a2.346,2.346,0,0,1-2.847-.142l-1.566-1a2.73,2.73,0,0,1-1.281-2.562l.427-2.562A1.887,1.887,0,0,0,74.936.718L71.662.006A1.81,1.81,0,0,0,69.527,1.43Zm9.252,22.063a9.855,9.855,0,1,1-19.358-3.7,9.758,9.758,0,0,1,11.53-7.686A9.573,9.573,0,0,1,78.779,23.493Z" transform="translate(-47.585 0.015)" fill="#444" fill-rule="evenodd"/>
    </g>
  </g>
</svg>
