<svg xmlns="http://www.w3.org/2000/svg" xmlns:xlink="http://www.w3.org/1999/xlink" width="190" height="77.179" viewBox="0 0 190 77.179">
  <defs>
    <linearGradient id="linear-gradient" x1="0.5" y1="0.063" x2="0.5" y2="0.986" gradientUnits="objectBoundingBox">
      <stop offset="0" stop-color="#fac221"/>
      <stop offset="1" stop-color="#faa335"/>
    </linearGradient>
  </defs>
  <g id="Group_8" data-name="Group 8" transform="translate(-0.1 0.015)">
    <g id="Group_529" data-name="Group 529">
      <path id="Path_1" data-name="Path 1" d="M303.4,81.151v-7.4h13.185v-1.2H303.446v-3.1c.139,0,8.836-.046,13.046-.046a2.857,2.857,0,0,1,2.961,2.915v1.3a1.523,1.523,0,0,1-.925,1.573,2.828,2.828,0,0,0-.278.185,6.192,6.192,0,0,1,.555.278A1.182,1.182,0,0,1,319.5,76.8v1.665a2.854,2.854,0,0,1-2.915,2.822C312.236,81.2,303.539,81.2,303.4,81.151ZM305.991,78h10.548V76.663c-1.2-.093-10.132-.046-10.548.046Z" transform="translate(-162.985 -37.302)" fill="#fff"/>
      <path id="Path_2" data-name="Path 2" d="M209.607,73.78c0,1.712.093,3.331-.046,4.95a2.9,2.9,0,0,1-2.868,2.359H196.607a3.026,3.026,0,0,1-2.868-2.174,3.943,3.943,0,0,1-.139-1.064V72.392a3.01,3.01,0,0,1,1.712-2.868,2.945,2.945,0,0,1,1.249-.324h13.046v3.1H198.92a9.768,9.768,0,0,0-1.2.093,1.607,1.607,0,0,0-1.434,1.758v1.573a1.627,1.627,0,0,0,1.48,1.8,5.1,5.1,0,0,0,.833.093h6.2a2.974,2.974,0,0,0,1.434-.324,1.372,1.372,0,0,0,.694-.879H198.6V73.641C202.2,73.78,205.86,73.78,209.607,73.78Z" transform="translate(-103.982 -37.194)" fill="#fff"/>
      <path id="Path_3" data-name="Path 3" d="M274.581,69.3c1.665,0,3.331.046,5,0a3.173,3.173,0,0,1,2.915,2.174,2.562,2.562,0,0,1,.093.833c0,1.943,0,3.932.046,5.875a3.089,3.089,0,0,1-3.007,3.007h-9.808a2.979,2.979,0,0,1-3.238-3.007c-.046-2.036,0-4.117.046-6.153a3.069,3.069,0,0,1,2.915-2.683c1.665-.046,3.377-.046,5.043-.046Zm0,8.512h2.868a8.261,8.261,0,0,0,1.064-.093,1.732,1.732,0,0,0,1.48-1.85V74.48a1.815,1.815,0,0,0-1.527-1.9,7.6,7.6,0,0,0-1.064-.093h-5.6a4.94,4.94,0,0,0-1.157.139,1.633,1.633,0,0,0-1.388,1.758v1.665a1.418,1.418,0,0,0,1.018,1.527,4.252,4.252,0,0,0,1.527.278C272.684,77.857,273.61,77.811,274.581,77.811Z" transform="translate(-143.188 -37.246)" fill="#fff"/>
      <path id="Path_4" data-name="Path 4" d="M113.06,69.3H115.6c0,.231.046,4.58.046,6.616a1.679,1.679,0,0,0,1.434,1.8,5.1,5.1,0,0,0,.833.093h6.338a2.409,2.409,0,0,0,1.388-.37,1.57,1.57,0,0,0,.833-1.48V69.3h2.544c0,.185,0,6.014.046,8.744a3.069,3.069,0,0,1-3.007,3.053H116.021a3.013,3.013,0,0,1-2.868-2.221,3.629,3.629,0,0,1-.093-1.018C113.013,75.222,113.013,69.531,113.06,69.3Z" transform="translate(-60.683 -37.248)" fill="#fff"/>
      <path id="Path_5" data-name="Path 5" d="M165.814,81.1h-2.591V74.435a1.785,1.785,0,0,0-1.527-1.9,6.95,6.95,0,0,0-.925-.093h-7.865c-.139,0-.278.046-.463.046v8.651H149.9v-11.8c.185,0,8.79-.046,12.907-.046a3.021,3.021,0,0,1,3.053,3.053V80.5A3.6,3.6,0,0,0,165.814,81.1Z" transform="translate(-80.498 -37.248)" fill="#fff"/>
      <path id="Path_6" data-name="Path 6" d="M392.207,77.812V81.1c-.185,0-8.836.046-13,.046a3.077,3.077,0,0,1-2.961-2.729c0-.324-.046-.648-.046-.925V69.3h2.637s.046,4.58,0,6.569a1.753,1.753,0,0,0,1.527,1.851,9.74,9.74,0,0,0,1.157.093Z" transform="translate(-202.106 -37.248)" fill="#fff"/>
      <path id="Path_7" data-name="Path 7" d="M246.207,77.866v3.285c-.139,0-8.836.046-13.092.046a2.987,2.987,0,0,1-2.868-2.683c0-.324-.046-.648-.046-1.018v-8.05l2.591-.046v6.523a1.663,1.663,0,0,0,1.527,1.8,4.882,4.882,0,0,0,1.157.093C238.851,77.866,245.975,77.866,246.207,77.866Z" transform="translate(-123.65 -37.302)" fill="#fff"/>
      <path id="Path_8" data-name="Path 8" d="M344.7,72.346a2.918,2.918,0,0,0,.185-.416c.463-.786.925-1.527,1.342-2.313a1.2,1.2,0,0,1,.74-.416h1.666a1.2,1.2,0,0,1,.74.416c1.48,2.637,2.961,5.228,4.441,7.865.6,1.064,1.2,2.128,1.8,3.146a2.729,2.729,0,0,0,.185.37c-.185,0-.278.046-.416.046h-1.85a.6.6,0,0,1-.6-.37c-.74-1.249-1.48-2.452-2.267-3.655-.093-.185-.231-.324-.324-.509h-5c-.463.786-.971,1.573-1.48,2.359-.37.6-.786,1.249-1.157,1.851a.688.688,0,0,1-.648.37c-.6-.046-1.249,0-1.851,0-.139,0-.231-.046-.416-.046.093-.139.093-.278.185-.37,1.2-2.128,2.452-4.3,3.655-6.43a.724.724,0,0,1,.833-.463c1.2.046,2.406,0,3.608,0h.648a9.793,9.793,0,0,0-.786-1.249.622.622,0,0,0-.416-.093h-2.221C345.12,72.392,344.935,72.392,344.7,72.346Z" transform="translate(-182.546 -37.194)" fill="#fff"/>
      <path id="Path_9" data-name="Path 9" d="M186.1,72.453V69.4h2.5v3.053Z" transform="translate(-99.951 -37.302)" fill="#fff"/>
      <rect id="Rectangle_5" data-name="Rectangle 5" width="2.498" height="7.356" transform="translate(86.149 36.493)" fill="#fff"/>
      <text id="INDUSTRIAL_TRADING" data-name="INDUSTRIAL TRADING" transform="translate(81.84 52.695)" fill="#fff" font-size="7" font-family="OpenSans, Open Sans"><tspan x="0" y="0">INDUSTRIAL TRADING</tspan></text>
    </g>
    <g id="Group_7" data-name="Group 7" transform="translate(0.1 -0.015)">
      <path id="Path_10" data-name="Path 10" d="M68.893,24.65c-3.47-5.274-8.79-8.559-15.961-10.224a22.726,22.726,0,0,0-9.391.37c-7.633,2.128-12.213,6.477-14.989,13.416-.879,2.128-1.9,6.384-1.3,9.576,1.018,5.366,2.452,9.067,5.135,12.63,1.018,1.064,2.036,2.174,3.053,3.238a6.924,6.924,0,0,1,1.619,1.434.24.24,0,0,0-.093.185c-2.036-.324-5.69-3.423-7.032-4.673a24.328,24.328,0,0,1-7.078-11.612,23.584,23.584,0,0,1,7.772-24.149,29.034,29.034,0,0,1,9.391-4.811c11.843-3.655,22.9,3.331,27.572,9.761,1.3,1.8,3.979,5.783,3.979,8.7a1.43,1.43,0,0,0-.37-.093A27.013,27.013,0,0,0,68.893,24.65ZM56.587,5.266a35.43,35.43,0,0,0-16.7-.74c-11.057,2.729-19.43,9.067-23.178,19.153-1.989,5.366-2.822,12.815-.833,18.968a32.531,32.531,0,0,0,4.673,9.206c5.043,6.939,12.445,10.825,22.761,12.63a24.152,24.152,0,0,0,8.374-.185c.925-.185,2.637-.833,3.516-.463v.185c-5.644,3.562-17.672,3.886-24.612,1.342C19.808,61.429,12.221,54.859,8.613,43.8,6.855,38.482,6.3,30.71,8.057,24.835a33.653,33.653,0,0,1,21.6-22.854A50.525,50.525,0,0,1,36.694.316c1.388-.139,2.683-.231,4.025-.324a33.586,33.586,0,0,1,17.3,4.349C58.992,4.9,62,6.33,62.323,7.3H62C60.2,6.607,58.391,5.913,56.587,5.266ZM3.894,24.326c-.786,4.164,0,10.779.833,14.156C8.289,53.24,17.634,63.6,31.281,68.275c5,1.712,13.185,2.915,19.523,1.388a53.785,53.785,0,0,0,8.374-2.544A39.3,39.3,0,0,0,74.12,55.831c1.157-1.573,2.267-3.146,3.423-4.673.463-.694.694-1.758,1.388-2.174l.185.185A39.885,39.885,0,0,1,53.071,75.122,59.372,59.372,0,0,1,46.224,76.7c-6.06,1.157-13.139,0-17.811-1.573C15.876,70.959,7.5,62.77,2.645,50.973c-4.3-10.5-2.915-25.814,2.406-34.049.093.046.139.093.231.093a9.96,9.96,0,0,1-.6,2.776C4.356,21.319,4.125,22.8,3.894,24.326Z" transform="translate(-0.1 0.015)" fill-rule="evenodd" fill="url(#linear-gradient)"/>
    </g>
  </g>
</svg>
