<?xml version="1.0" encoding="utf-8"?>
<!-- Generator: Adobe Illustrator 22.0.1, SVG Export Plug-In . SVG Version: 6.00 Build 0)  -->
<svg version="1.1" id="Layer_1" xmlns="http://www.w3.org/2000/svg" xmlns:xlink="http://www.w3.org/1999/xlink" x="0px" y="0px"
	 viewBox="0 0 198 134" style="enable-background:new 0 0 198 134;" xml:space="preserve">
<style type="text/css">
	.st0{fill:#2E2E2E;}
</style>
<g>
	<g>
		<g>
			<path class="st0" d="M37.9,126c-12.8,0-23.2-10.4-23.2-23.2c0-12.8,10.4-23.2,23.2-23.2c12.8,0,23.2,10.4,23.2,23.2
				C61.1,115.6,50.7,126,37.9,126z M37.9,82.6c-11.1,0-20.2,9.1-20.2,20.2S26.8,123,37.9,123s20.2-9.1,20.2-20.2S49,82.6,37.9,82.6z
				"/>
		</g>
		<g>
			<path class="st0" d="M37.9,119.6c-9.3,0-16.8-7.6-16.8-16.8s7.6-16.8,16.8-16.8s16.8,7.6,16.8,16.8S47.2,119.6,37.9,119.6z
				 M37.9,88.9c-7.7,0-13.9,6.2-13.9,13.9s6.2,13.9,13.9,13.9s13.9-6.2,13.9-13.9S45.6,88.9,37.9,88.9z"/>
		</g>
		<g>
			<g>
				<path class="st0" d="M38.5,93.7v1c0.7,0.1,1.3,0.2,1.8,0.4c0.5,0.2,0.9,0.5,1.3,1c0.3,0.3,0.5,0.7,0.7,1c0.2,0.3,0.2,0.7,0.2,1
					c0,0.3-0.1,0.6-0.4,0.8c-0.2,0.2-0.5,0.4-0.9,0.4c-0.6,0-1-0.3-1.2-1c-0.2-0.8-0.7-1.3-1.5-1.6v4c0.8,0.2,1.4,0.4,1.9,0.6
					c0.5,0.2,0.9,0.4,1.3,0.8c0.4,0.4,0.7,0.8,0.9,1.3c0.2,0.5,0.3,1,0.3,1.6c0,0.7-0.2,1.4-0.5,2.1c-0.3,0.6-0.8,1.2-1.5,1.6
					c-0.7,0.4-1.5,0.6-2.4,0.7v2.4c0,0.4,0,0.7-0.1,0.8c-0.1,0.2-0.2,0.3-0.5,0.3c-0.2,0-0.4-0.1-0.5-0.2c-0.1-0.1-0.1-0.4-0.1-0.7
					v-2.6c-0.8-0.1-1.4-0.3-2-0.5c-0.6-0.3-1-0.6-1.4-1c-0.4-0.4-0.7-0.8-0.8-1.3c-0.2-0.4-0.3-0.9-0.3-1.3c0-0.3,0.1-0.6,0.4-0.8
					c0.2-0.2,0.5-0.4,0.9-0.4c0.3,0,0.5,0.1,0.7,0.2c0.2,0.1,0.3,0.3,0.4,0.6c0.2,0.5,0.3,0.9,0.5,1.2c0.1,0.3,0.3,0.5,0.6,0.8
					c0.3,0.2,0.6,0.4,1,0.5v-4.5c-0.9-0.2-1.6-0.5-2.2-0.8c-0.6-0.3-1-0.7-1.4-1.2c-0.4-0.5-0.5-1.2-0.5-2.1c0-1.1,0.4-2,1.1-2.7
					c0.7-0.7,1.7-1.1,3-1.2v-1c0-0.5,0.2-0.8,0.6-0.8C38.3,92.9,38.5,93.1,38.5,93.7z M37.3,100.3v-3.7c-0.5,0.2-1,0.4-1.3,0.6
					c-0.3,0.3-0.5,0.7-0.5,1.2c0,0.5,0.1,0.9,0.4,1.1C36.3,99.8,36.7,100.1,37.3,100.3z M38.5,103.1v4.2c0.6-0.1,1.1-0.4,1.5-0.8
					c0.4-0.4,0.5-0.8,0.5-1.4c0-0.6-0.2-1-0.5-1.3C39.7,103.6,39.2,103.3,38.5,103.1z"/>
			</g>
		</g>
	</g>
	<g>
		<g>
			<path class="st0" d="M76.7,69H8.5C7.7,69,7,68.3,7,67.5V7.9c0-0.8,0.7-1.5,1.5-1.5h120.8c0.8,0,1.5,0.7,1.5,1.5v45.4
				c0,0.8-0.7,1.5-1.5,1.5H78.2v12.7C78.2,68.3,77.6,69,76.7,69z M9.9,66h65.3V53.4c0-0.4,0.2-0.8,0.5-1.1c0.3-0.3,0.7-0.5,1.1-0.5
				h51V9.3H9.9V66z"/>
		</g>
		<g>
			<path class="st0" d="M76.7,63.2H23.2c-0.7,0-1.3-0.5-1.4-1.1c-0.4-1.7-1.6-3.7-3.1-5.4c-1.4-1.5-3-2.7-4.6-3.4
				c-0.5-0.2-0.9-0.8-0.9-1.3V22.2c0-0.6,0.3-1.1,0.9-1.3c1.6-0.7,3.2-1.9,4.6-3.4c1.2-1.4,2.2-2.9,2.8-4.3c0.2-0.6,0.8-0.9,1.4-0.9
				H115c0.6,0,1.2,0.4,1.4,0.9c0.6,1.5,1.5,3,2.8,4.3c1.4,1.5,3,2.7,4.6,3.4c0.5,0.2,0.9,0.8,0.9,1.3V52c0,0.6-0.3,1.1-0.9,1.3
				c-0.6,0.3-1.3,0.7-2,1.1c-0.2,0.2-0.5,0.3-0.8,0.3H78.2v7C78.2,62.6,77.6,63.2,76.7,63.2z M24.3,60.3h51v-6.9
				c0-0.4,0.2-0.8,0.5-1.1c0.3-0.3,0.7-0.5,1.1-0.5h43.6c0.4-0.3,0.8-0.5,1.2-0.7v-28c-1.7-0.9-3.3-2.1-4.7-3.7
				c-1.2-1.3-2.2-2.8-2.9-4.3H23.8c-0.7,1.5-1.7,3-2.9,4.3c-1.4,1.5-3,2.8-4.7,3.7v28c1.7,0.9,3.3,2.1,4.7,3.7
				C22.4,56.5,23.6,58.4,24.3,60.3z"/>
		</g>
		<g>
			<path class="st0" d="M69.4,59c-11.1,0-20.2-9.2-20.2-20.5S58.3,18,69.4,18c11.1,0,20.2,9.2,20.2,20.5c0,6.2-2.7,12-7.5,15.9
				c-0.3,0.2-0.6,0.3-0.9,0.3h-2.9V56c0,0.6-0.3,1.1-0.9,1.4C74.8,58.4,72.1,59,69.4,59z M69.4,20.9c-9.5,0-17.3,7.9-17.3,17.5
				S59.9,56,69.4,56c2,0,4-0.4,5.9-1.1v-1.6c0-0.4,0.2-0.8,0.5-1.1c0.3-0.3,0.7-0.5,1.1-0.5h3.8c3.9-3.3,6.1-8.2,6.1-13.3
				C86.7,28.8,78.9,20.9,69.4,20.9z"/>
		</g>
	</g>
	<g>
		<g>
			<path class="st0" d="M187.5,126.6H76.7c-0.8,0-1.5-0.7-1.5-1.5V53.5c0-0.8,0.7-1.5,1.5-1.5h110.8c0.8,0,1.5,0.7,1.5,1.5v71.6
				C189,125.9,188.3,126.6,187.5,126.6z M78.2,123.7h107.9V55H78.2V123.7z"/>
		</g>
		<g>
			<path class="st0" d="M187.5,126.6H76.7c-0.8,0-1.5-0.7-1.5-1.5V53.5c0-0.8,0.7-1.5,1.5-1.5h110.8c0.8,0,1.5,0.7,1.5,1.5v71.6
				C189,125.9,188.3,126.6,187.5,126.6z M78.2,123.7h107.9V55H78.2V123.7z"/>
		</g>
		<g>
			<g>
				<path class="st0" d="M187.5,86.7H76.7c-0.8,0-1.5-0.7-1.5-1.5V69.5c0-0.8,0.7-1.5,1.5-1.5h110.8c0.8,0,1.5,0.7,1.5,1.5v15.7
					C189,86,188.3,86.7,187.5,86.7z M78.2,83.7h107.9V71H78.2V83.7z"/>
			</g>
			<g>
				<path class="st0" d="M171.9,111.6h-12.5c-2.8,0-5.2-2.3-5.2-5.2v-7.3c0-2.8,2.3-5.2,5.2-5.2h12.5c2.8,0,5.2,2.3,5.2,5.2v7.3
					C177.1,109.3,174.8,111.6,171.9,111.6z M159.5,96.9c-1.2,0-2.2,1-2.2,2.2v7.3c0,1.2,1,2.2,2.2,2.2h12.5c1.2,0,2.2-1,2.2-2.2
					v-7.3c0-1.2-1-2.2-2.2-2.2H159.5z"/>
			</g>
		</g>
	</g>
</g>
</svg>
