<svg xmlns="http://www.w3.org/2000/svg" width="198" height="134" viewBox="0 0 198 134">
  <g id="Group_764" data-name="Group 764" transform="translate(-597 -1684)">
    <g id="Group_669" data-name="Group 669" transform="translate(606 1714)">
      <g id="Group_667" data-name="Group 667">
        <g id="Group_652" data-name="Group 652" transform="translate(56.619)">
          <path id="Path_110" data-name="Path 110" d="M171.723,69.905H135.558a1.1,1.1,0,0,1,0-2.205h36.165a4.423,4.423,0,0,0,4.41-4.41V6.616a4.423,4.423,0,0,0-4.41-4.41H109.316a4.423,4.423,0,0,0-4.41,4.41V63.234a4.423,4.423,0,0,0,4.41,4.41h6.45a1.1,1.1,0,0,1,0,2.205h-6.45a6.635,6.635,0,0,1-6.616-6.616V6.616A6.635,6.635,0,0,1,109.316,0h62.407a6.635,6.635,0,0,1,6.616,6.616V63.234A6.647,6.647,0,0,1,171.723,69.905Z" transform="translate(-102.7)" fill="#2e2e2e"/>
        </g>
        <g id="Group_653" data-name="Group 653" transform="translate(68.527 57.776)">
          <path id="Path_111" data-name="Path 111" d="M135.326,126.852a11.026,11.026,0,1,1,11.026-11.026A11.058,11.058,0,0,1,135.326,126.852Zm0-19.9a8.821,8.821,0,1,0,8.821,8.821A8.847,8.847,0,0,0,135.326,106.95Z" transform="translate(-124.3 -104.8)" fill="#2e2e2e"/>
        </g>
        <g id="Group_654" data-name="Group 654" transform="translate(132.588 18.469)">
          <path id="Path_112" data-name="Path 112" d="M284.053,84.936H273.468a1.1,1.1,0,1,1,0-2.205h10.585a1.659,1.659,0,0,0,1.654-1.654V62.5a10,10,0,0,0-1.323-4.521c0-.055-.055-.055-.055-.11l-10.034-20.4a4.5,4.5,0,0,0-3.253-1.764H244.359a1.659,1.659,0,0,0-1.654,1.654V81.077a1.659,1.659,0,0,0,1.654,1.654h9.207a1.1,1.1,0,0,1,0,2.205h-9.207a3.835,3.835,0,0,1-3.859-3.859V37.359a3.835,3.835,0,0,1,3.859-3.859h26.683a6.745,6.745,0,0,1,5.182,2.867c0,.055.055.055.055.11L286.313,56.93a12.706,12.706,0,0,1,1.6,5.623V81.077A3.87,3.87,0,0,1,284.053,84.936Z" transform="translate(-240.5 -33.5)" fill="#2e2e2e"/>
        </g>
        <g id="Group_655" data-name="Group 655" transform="translate(137.936 23.044)">
          <path id="Path_113" data-name="Path 113" d="M284.491,64.734H251.3a1.106,1.106,0,0,1-1.1-1.1V44.667a3.037,3.037,0,0,1,3.2-2.867h19.02a5.569,5.569,0,0,1,4.135,1.93c.055.055.055.11.11.165L284.326,60.1a7.262,7.262,0,0,1,1.213,3.253c0,.11.055.165.055.276A1.106,1.106,0,0,1,284.491,64.734Zm-32.086-2.205h30.707a6.217,6.217,0,0,0-.606-1.213c-.055-.055-.055-.11-.11-.165L274.733,45a3.585,3.585,0,0,0-2.315-.992H253.4c-.606,0-.992.331-.992.662Z" transform="translate(-250.2 -41.8)" fill="#2e2e2e"/>
        </g>
        <g id="Group_656" data-name="Group 656" transform="translate(73.488 62.683)">
          <path id="Path_114" data-name="Path 114" d="M139.364,125.829a6.064,6.064,0,1,1,6.064-6.064A6.082,6.082,0,0,1,139.364,125.829Zm0-9.868a3.859,3.859,0,1,0,3.859,3.859A3.87,3.87,0,0,0,139.364,115.96Z" transform="translate(-133.3 -113.7)" fill="#2e2e2e"/>
        </g>
        <g id="Group_657" data-name="Group 657" transform="translate(144.606 57.776)">
          <path id="Path_115" data-name="Path 115" d="M273.326,126.852a11.026,11.026,0,1,1,11.026-11.026A11.058,11.058,0,0,1,273.326,126.852Zm0-19.9a8.821,8.821,0,1,0,8.821,8.821A8.847,8.847,0,0,0,273.326,106.95Z" transform="translate(-262.3 -104.8)" fill="#2e2e2e"/>
        </g>
        <g id="Group_658" data-name="Group 658" transform="translate(149.568 62.683)">
          <path id="Path_116" data-name="Path 116" d="M277.364,125.829a6.064,6.064,0,1,1,6.064-6.064A6.082,6.082,0,0,1,277.364,125.829Zm0-9.868a3.859,3.859,0,1,0,3.859,3.859A3.87,3.87,0,0,0,277.364,115.96Z" transform="translate(-271.3 -113.7)" fill="#2e2e2e"/>
        </g>
        <g id="Group_666" data-name="Group 666" transform="translate(0 8.876)">
          <g id="Group_659" data-name="Group 659" transform="translate(0 49.948)">
            <path id="Path_117" data-name="Path 117" d="M40.41,108.905H1.1a1.1,1.1,0,0,1,0-2.205H40.41a1.1,1.1,0,0,1,0,2.205Z" transform="translate(0 -106.7)" fill="#2e2e2e"/>
          </g>
          <g id="Group_660" data-name="Group 660" transform="translate(44.49 49.948)">
            <path id="Path_118" data-name="Path 118" d="M84.89,108.905H81.8a1.1,1.1,0,1,1,0-2.205H84.89a1.1,1.1,0,1,1,0,2.205Z" transform="translate(-80.7 -106.7)" fill="#2e2e2e"/>
          </g>
          <g id="Group_661" data-name="Group 661" transform="translate(7.994 33.299)">
            <path id="Path_119" data-name="Path 119" d="M46.917,78.705H15.6a1.1,1.1,0,1,1,0-2.205H46.972a1.106,1.106,0,0,1,1.1,1.1A1.154,1.154,0,0,1,46.917,78.705Z" transform="translate(-14.5 -76.5)" fill="#2e2e2e"/>
          </g>
          <g id="Group_662" data-name="Group 662" transform="translate(38.315 16.649)">
            <path id="Path_120" data-name="Path 120" d="M79.754,48.505H70.6a1.1,1.1,0,0,1,0-2.205h9.152a1.1,1.1,0,0,1,0,2.205Z" transform="translate(-69.5 -46.3)" fill="#2e2e2e"/>
          </g>
          <g id="Group_663" data-name="Group 663" transform="translate(20.343 16.649)">
            <path id="Path_121" data-name="Path 121" d="M50.131,48.505H38A1.1,1.1,0,1,1,38,46.3H50.131a1.1,1.1,0,1,1,0,2.205Z" transform="translate(-36.9 -46.3)" fill="#2e2e2e"/>
          </g>
          <g id="Group_664" data-name="Group 664" transform="translate(27.896)">
            <path id="Path_122" data-name="Path 122" d="M65.43,18.305H51.7a1.1,1.1,0,0,1,0-2.205H65.43a1.1,1.1,0,0,1,0,2.205Z" transform="translate(-50.6 -16.1)" fill="#2e2e2e"/>
          </g>
          <g id="Group_665" data-name="Group 665" transform="translate(21.832)">
            <path id="Path_123" data-name="Path 123" d="M42.687,18.305H40.7a1.1,1.1,0,1,1,0-2.205h1.985a1.1,1.1,0,0,1,0,2.205Z" transform="translate(-39.6 -16.1)" fill="#2e2e2e"/>
          </g>
        </g>
      </g>
      <g id="Group_668" data-name="Group 668" transform="translate(72.551 15.492)">
        <path id="Path_124" data-name="Path 124" d="M151.061,67.022a19.461,19.461,0,1,1,0-38.922,18.519,18.519,0,0,1,7.553,1.544,1.092,1.092,0,0,1,.606.606,1.075,1.075,0,0,1,0,.827l-2.15,5.017a1.119,1.119,0,0,1-1.433.606,11.79,11.79,0,1,0,7.222,10.861v-.717L159,47.616c-.11,0-.221.055-.331.055a1.418,1.418,0,0,1-1.323-2.04l5.237-13.121a1.492,1.492,0,0,1,1.433-.992,1.587,1.587,0,0,1,1.158.5l9.868,10.144a1.446,1.446,0,0,1-.772,2.481l-3.8.772a14.779,14.779,0,0,1,.11,2.205A19.6,19.6,0,0,1,151.061,67.022Zm0-36.717a17.256,17.256,0,1,0,17.256,17.256,27.076,27.076,0,0,0-.22-2.922,1.076,1.076,0,0,1,.882-1.268l3.473-.717-8.214-8.435-4.355,10.916,3.749-.717a1.087,1.087,0,0,1,.827.165,1.226,1.226,0,0,1,.441.717,14.848,14.848,0,0,1,.165,2.205,14,14,0,1,1-14-14,13.21,13.21,0,0,1,4.41.717l1.268-2.977A18.031,18.031,0,0,0,151.061,30.305Z" transform="translate(-131.6 -28.1)" fill="#2e2e2e"/>
      </g>
    </g>
    <rect id="Rectangle_82" data-name="Rectangle 82" width="198" height="134" transform="translate(597 1684)" fill="none"/>
  </g>
</svg>
