<?xml version="1.0" encoding="utf-8"?>
<!-- Generator: Adobe Illustrator 22.0.1, SVG Export Plug-In . SVG Version: 6.00 Build 0)  -->
<svg version="1.1" id="Layer_1" xmlns="http://www.w3.org/2000/svg" xmlns:xlink="http://www.w3.org/1999/xlink" x="0px" y="0px"
	 viewBox="0 0 130 50" style="enable-background:new 0 0 130 50;" xml:space="preserve">
<style type="text/css">
	.st0{fill:#FFFFFF;}
</style>
<g>
	<path class="st0" d="M47.5,27.8v5.4h-4.2V16.9h7.3c3.5,0,5.9,2,5.9,5.5c0,2.5-1.2,4.2-3.2,4.9l3.8,5.8h-4.7L49,27.8H47.5z
		 M47.5,24.4h2.6c1.5,0,2.2-0.8,2.2-2c0-1.2-0.7-2-2.2-2h-2.6V24.4z"/>
	<polygon class="st0" points="69.9,16.9 69.9,20.5 62.5,20.5 62.5,23.1 69.3,23.1 69.3,26.6 62.5,26.6 62.5,29.4 69.9,29.4 
		69.9,33.1 58.3,33.1 58.3,16.9 	"/>
	<polygon class="st0" points="108.3,16.9 108.3,20.5 100.9,20.5 100.9,23.1 107.7,23.1 107.7,26.6 100.9,26.6 100.9,29.4 
		108.3,29.4 108.3,33.1 96.7,33.1 96.7,16.9 	"/>
	<polygon class="st0" points="71.3,33.1 71.3,16.9 82.7,16.9 82.7,20.6 75.5,20.6 75.5,23.8 82.1,23.8 82.1,27.4 75.5,27.4 
		75.5,33.1 	"/>
	<polygon class="st0" points="84,16.9 88.2,16.9 88.2,29.4 95.5,29.4 95.5,33.1 84,33.1 	"/>
	<polygon class="st0" points="108.3,33.1 124.2,14.2 130,14.2 114.2,33.1 	"/>
	<polygon class="st0" points="118.5,29.1 124.2,35.8 130,35.8 121.4,25.6 	"/>
	<polygon class="st0" points="114.2,16.9 108.3,16.9 114.6,24.4 117.5,20.9 	"/>
	<g>
		<path class="st0" d="M17.3,35.8L17.3,35.8c-5.4-0.4-9.7-4.7-10.1-10.1h0H0v17.3h17.3V35.8z"/>
		<path class="st0" d="M28.9,25.7c-0.4,5.4-4.7,9.7-10.1,10.1v0v7.2h17.3V25.7H28.9L28.9,25.7z"/>
		<path class="st0" d="M18.8,14.2L18.8,14.2c5.4,0.4,9.7,4.7,10.1,10.1h0h7.2V6.9H18.8V14.2z"/>
		<path class="st0" d="M7.2,24.3c0.4-5.4,4.7-9.7,10.1-10.1v0V6.9H0v17.3H7.2L7.2,24.3z"/>
		<path class="st0" d="M7.2,25.7h1.6c0.4,4.5,4,8.2,8.5,8.5v1.6h1.4v-1.6c4.5-0.4,8.2-4,8.5-8.5h1.6v-1.4h-1.6
			C27,20.9,24.9,18,22,16.6c-0.8,0.3-1.6,0.6-2.5,0.7c3.4,0.6,6,3.5,6.3,7h-7.1v-6.9c-0.2,0-0.5,0-0.7,0c-0.2,0-0.5,0-0.7,0v6.9
			h-7.1c0.3-3.5,2.9-6.3,6.3-7c-0.9-0.1-1.7-0.4-2.5-0.7c-2.9,1.4-5,4.3-5.3,7.7H7.2V25.7z M17.3,32.8c-3.7-0.3-6.7-3.3-7.1-7.1h7.1
			V32.8z M18.8,32.8v-7.1h7.1C25.5,29.5,22.5,32.4,18.8,32.8"/>
	</g>
</g>
</svg>
