<?xml version="1.0" encoding="utf-8"?>
<!-- Generator: Adobe Illustrator 22.0.1, SVG Export Plug-In . SVG Version: 6.00 Build 0)  -->
<svg version="1.1" id="Layer_1" xmlns="http://www.w3.org/2000/svg" xmlns:xlink="http://www.w3.org/1999/xlink" x="0px" y="0px"
	 viewBox="0 0 130 50" style="enable-background:new 0 0 130 50;" xml:space="preserve">
<style type="text/css">
	.st0{fill:#0056A2;}
	.st1{fill:#ED1941;}
</style>
<g>
	<path class="st0" d="M47.5,27.8v5.4h-4.2V16.9h7.3c3.5,0,5.9,2,5.9,5.5c0,2.5-1.2,4.2-3.2,4.9l3.8,5.8h-4.7L49,27.8H47.5z
		 M47.5,24.4h2.6c1.5,0,2.2-0.8,2.2-2c0-1.2-0.7-2-2.2-2h-2.6V24.4z"/>
	<polygon class="st0" points="69.9,16.9 69.9,20.5 62.5,20.5 62.5,23.1 69.3,23.1 69.3,26.6 62.5,26.6 62.5,29.4 69.9,29.4 
		69.9,33.1 58.3,33.1 58.3,16.9 	"/>
	<polygon class="st0" points="108.3,16.9 108.3,20.5 100.9,20.5 100.9,23.1 107.7,23.1 107.7,26.6 100.9,26.6 100.9,29.4 
		108.3,29.4 108.3,33.1 96.7,33.1 96.7,16.9 	"/>
	<polygon class="st0" points="71.3,33.1 71.3,16.9 82.7,16.9 82.7,20.6 75.5,20.6 75.5,23.8 82.1,23.8 82.1,27.4 75.5,27.4 
		75.5,33.1 	"/>
	<polygon class="st0" points="84,16.9 88.2,16.9 88.2,29.4 95.5,29.4 95.5,33.1 84,33.1 	"/>
	<polygon class="st0" points="108.3,33.1 124.2,14.2 130,14.2 114.2,33.1 	"/>
	<polygon class="st0" points="118.5,29.1 124.2,35.8 130,35.8 121.4,25.6 	"/>
	<polygon class="st0" points="114.2,16.9 108.3,16.9 114.6,24.4 117.5,20.9 	"/>
	<path class="st0" d="M17.3,14.2V6.9H0v17.3h7.2C7.6,18.9,11.9,14.6,17.3,14.2"/>
	<path class="st0" d="M18.8,35.8v7.2h17.3V25.7h-7.2C28.5,31.1,24.2,35.5,18.8,35.8"/>
	<path class="st0" d="M7.2,25.7H0v17.3h17.3v-7.2C11.9,35.4,7.6,31.1,7.2,25.7"/>
	<path class="st0" d="M18.8,6.9v7.2c5.4,0.4,9.7,4.7,10.1,10.1h7.2V6.9H18.8z"/>
	<path class="st1" d="M27.3,25.7c-0.4,4.5-4,8.2-8.5,8.5v1.6c5.4-0.4,9.7-4.7,10.1-10.1L27.3,25.7C27.3,25.7,27.3,25.7,27.3,25.7"/>
	<path class="st1" d="M25.8,25.7h-7.1v7.1C22.5,32.4,25.5,29.5,25.8,25.7"/>
	<path class="st1" d="M25.6,19.6C25.6,19.6,25.6,19.6,25.6,19.6c-0.2-0.3-0.5-0.7-0.8-1c0,0,0,0,0,0c-0.4-0.4-0.9-0.8-1.4-1.2
		c0,0,0,0,0,0c-0.3-0.2-0.7-0.4-1-0.6c0,0,0,0,0,0c-0.2-0.1-0.4-0.2-0.6-0.3c0.6-0.2,1.2-0.5,1.8-0.8c3,1.8,5.1,4.9,5.3,8.6h-1.6
		C27.2,22.5,26.5,20.9,25.6,19.6"/>
	<path class="st1" d="M18.8,17.2v7.1h7.1C25.5,20.5,22.5,17.6,18.8,17.2"/>
	<path class="st1" d="M17.3,34.2c-4.5-0.4-8.2-4-8.5-8.5H7.2c0.4,5.4,4.7,9.7,10.1,10.1V34.2z"/>
	<path class="st1" d="M17.3,32.8v-7.1h-7.1C10.6,29.5,13.6,32.4,17.3,32.8"/>
	<path class="st1" d="M10.5,19.6C10.5,19.6,10.5,19.6,10.5,19.6c0.2-0.3,0.5-0.7,0.8-1c0,0,0,0,0,0c0.4-0.4,0.9-0.8,1.4-1.2
		c0,0,0,0,0,0c0.3-0.2,0.7-0.4,1-0.6c0,0,0,0,0,0c0.2-0.1,0.4-0.2,0.6-0.3c-0.6-0.2-1.2-0.5-1.8-0.8c-3,1.8-5.1,4.9-5.3,8.6h1.6
		C8.9,22.5,9.6,20.9,10.5,19.6"/>
	<path class="st1" d="M10.3,24.3h7.1v-7.1C13.6,17.6,10.6,20.5,10.3,24.3"/>
</g>
</svg>
