<?xml version="1.0" encoding="utf-8"?>
<!-- Generator: Adobe Illustrator 22.0.1, SVG Export Plug-In . SVG Version: 6.00 Build 0)  -->
<svg version="1.1" id="Layer_1" xmlns="http://www.w3.org/2000/svg" xmlns:xlink="http://www.w3.org/1999/xlink" x="0px" y="0px"
	 viewBox="0 0 198 134" style="enable-background:new 0 0 198 134;" xml:space="preserve">
<style type="text/css">
	.st0{fill:#2E2E2E;}
</style>
<g>
	<g>
		<g>
			<path class="st0" d="M71.4,77.3c-1.4,0-2.8-0.7-3.6-1.8L48,48.6l-19,0.2c-0.7,0-1.2-0.5-1.2-1.1c0-0.6,0.5-1.2,1.1-1.2l39.7-0.3
				c0,0,0,0,0,0c0.5,0,1,0.3,1.1,0.8l7.5,26.4c0.3,1.1,0,2.1-0.7,2.9c-0.5,0.5-1.1,0.8-1.9,0.8l-3,0.2
				C71.6,77.3,71.5,77.3,71.4,77.3z M50.8,48.6l18.9,25.5c0.4,0.5,1.2,0.9,1.9,0.8l3-0.2c0.2,0,0.3-0.1,0.4-0.2
				c0.1-0.1,0.2-0.4,0.1-0.6l-7.3-25.5L50.8,48.6z"/>
		</g>
		<g>
			<path class="st0" d="M23.3,43.2c-0.6,0-1.2-0.5-1.2-1.2c0-0.1,0-0.1,0-0.2c0,0,0-0.1,0-0.1c0,0,0,0,0,0c0,0,0,0,0,0c0,0,0,0,0,0
				c0-0.6,0.5-1.1,1.2-1.1c0,0,0,0,0,0c0.6,0,1.1,0.5,1.1,1.2c0,0,0,0,0,0c0,0,0,0,0,0c0,0,0,0.1,0,0.1c0,0,0,0.1,0,0.1l0,0.1
				C24.4,42.7,23.9,43.2,23.3,43.2z"/>
		</g>
		<g>
			<path class="st0" d="M68.6,37.6C68.6,37.6,68.6,37.6,68.6,37.6l-20.1-0.2c-0.4,0-0.8-0.3-1-0.6c-0.2-0.4-0.2-0.9,0.1-1.2
				L67.8,8.2c0.8-1.1,2.5-1.9,3.9-1.8l3,0.2c0.9,0.1,1.7,0.5,2.2,1.2c0.5,0.7,0.6,1.6,0.4,2.5l-7.5,26.4
				C69.6,37.3,69.2,37.6,68.6,37.6z M50.8,35.2l17,0.1l7.3-25.5c0.1-0.2,0-0.4-0.1-0.5C74.9,9.1,74.7,9,74.5,9l-3-0.2
				c0,0-0.1,0-0.1,0c-0.6,0-1.4,0.4-1.8,0.9L50.8,35.2z"/>
		</g>
		<g>
			<path class="st0" d="M95.2,60c-1.3,0-2.9-0.7-3.7-1.7c-0.1-0.1-0.1-0.1-0.1-0.2l-5.8-9.8l-0.2,0c0,0,0,0,0,0
				c-0.6,0-1.2-0.5-1.2-1.1c0,0,0,0,0,0c0-0.6,0.5-1.2,1.1-1.2l0.8,0c0,0,0,0,0,0l0.1,0c1.6-0.9,4.5-2.7,5.6-3.8
				c0.1-0.1,0.2-0.2,0.3-0.3c-0.3-0.5-1.9-1.9-5.9-4.1l-0.1,0c-0.4,0-0.8-0.2-1-0.6c-0.2-0.4-0.2-0.8,0-1.2l6.2-10.4
				c0-0.1,0.1-0.1,0.1-0.2c0.8-1.1,2.5-1.8,3.9-1.7l0.7,0c0.9,0.1,1.7,0.5,2.2,1.2c0.5,0.7,0.6,1.6,0.3,2.4l-4,14.4l4,14.4
				c0.4,1,0.1,2.2-0.6,2.9c-0.5,0.5-1.1,0.8-1.9,0.8l-0.7,0C95.3,60,95.2,60,95.2,60z M93.3,56.9c0.4,0.5,1.2,0.8,1.8,0.8l0.8,0
				c0.2,0,0.3-0.1,0.4-0.1c0.2-0.2,0.1-0.4,0.1-0.5c0,0,0-0.1,0-0.1l-3.5-12.5c-1.5,1.2-3.8,2.6-5,3.3L93.3,56.9z M87.9,36
				c2.5,1.4,4,2.5,5,3.3l3.5-12.5c0,0,0-0.1,0-0.1c0.1-0.2,0-0.3,0-0.4c-0.1-0.1-0.2-0.2-0.4-0.2l-0.8,0c-0.6,0-1.5,0.4-1.9,0.8
				L87.9,36z"/>
		</g>
		<g>
			<path class="st0" d="M68.6,48.4c-0.3,0-0.6-0.1-0.8-0.3c-0.2-0.2-0.3-0.5-0.3-0.8v0c0-0.6,0.5-1.2,1.1-1.2L85.4,46c0,0,0,0,0,0
				c0.6,0,1.2,0.5,1.2,1.1c0,0.6-0.5,1.2-1.1,1.2l0,0L68.6,48.4C68.6,48.4,68.6,48.4,68.6,48.4z"/>
		</g>
		<g>
			<path class="st0" d="M86.2,37.8C86.2,37.8,86.2,37.8,86.2,37.8l-17.5-0.2c-0.4,0-0.7-0.2-0.9-0.5c-0.2-0.3-0.3-0.7-0.2-1
				c0.2-0.5,0.6-0.8,1.1-0.8l17.5,0.2c0.6,0,1.2,0.5,1.1,1.2C87.3,37.3,86.8,37.8,86.2,37.8z"/>
		</g>
		<g>
			<path class="st0" d="M48.5,37.5C48.5,37.5,48.5,37.5,48.5,37.5L29,37.3c0,0,0,0-0.1,0c0,0,0,0,0,0c0,0,0,0,0,0c0,0,0,0,0,0
				c-0.6-0.1-1-0.5-1-1.1l0,0c0,0,0,0,0,0c0,0,0,0,0,0c0-0.6,0.5-1.1,1.2-1.1h0l19.6,0.2c0.6,0,1.2,0.5,1.1,1.2
				C49.7,36.9,49.2,37.5,48.5,37.5z"/>
		</g>
		<g>
			<path class="st0" d="M28.9,48.8c-1.8,0-3.5-0.7-4.8-1.9c-1.3-1.3-2-3-2-4.8c0-0.1,0-0.1,0-0.2c0-0.1,0-0.1,0-0.2
				c0-1.8,0.7-3.5,2-4.7c1.3-1.3,3-2,4.8-2c0,0,0.1,0,0.1,0l39.7,0.3c0,0,0,0,0.1,0l17.8,0.2c0.3,0,0.6,0.1,0.8,0.2
				c7.2,4.1,7.2,5.5,7.2,6.2c0,0.9-0.6,1.5-1,2c-1.6,1.6-5.5,3.8-6.2,4.2c-0.3,0.1-0.5,0.2-0.8,0.2l-17.8,0.2c0,0,0,0-0.1,0
				L28.9,48.8C29,48.8,28.9,48.8,28.9,48.8z M29,37.3c-1.2,0-2.4,0.5-3.2,1.3c-0.8,0.8-1.3,1.9-1.3,3.1c0,0.1,0,0.2,0,0.2l0,0.1
				c0,1.2,0.5,2.3,1.3,3.2c0.8,0.8,2,1.3,3.1,1.3v1.2l0-1.2l39.6-0.3c0,0,0,0,0.1,0L86.3,46c1.6-0.9,4.5-2.7,5.6-3.8
				c0.1-0.1,0.2-0.2,0.3-0.3c-0.3-0.5-1.9-1.9-5.9-4.1l-17.7-0.2c0,0,0,0-0.1,0L29,37.3L29,37.3z"/>
		</g>
	</g>
	<g>
		<g>
			<path class="st0" d="M161,126.6H90c-0.7,0-1.4-0.5-1.6-1.2l-4.9-19.9c-0.1-0.5,0-1,0.3-1.4c0.3-0.4,0.8-0.6,1.3-0.6h4l8.1-12.3
				c0.3-0.5,0.8-0.7,1.4-0.7h3.8v-4.7c0-0.9,0.7-1.6,1.6-1.6h2.3v-5.3c0-0.9,0.7-1.6,1.6-1.6h17.6c0.9,0,1.6,0.7,1.6,1.6v5.3h15.2
				c0.9,0,1.6,0.7,1.6,1.6v4.7h7.4c0.4,0,0.9,0.2,1.2,0.5l7.1,7.5l14.7,0c0.6,0,1.1,0.3,1.4,0.8c0.3,0.5,0.3,1.1,0,1.6l-13.2,25
				C162.2,126.3,161.6,126.6,161,126.6z M90.6,124.3h70l12.5-23.6l-14,0c0,0,0,0,0,0c-0.3,0-0.6-0.1-0.8-0.4l-7.2-7.7h-8.3
				c-0.6,0-1.2-0.5-1.2-1.2v-5.2H126c-0.6,0-1.2-0.5-1.2-1.2v-5.8h-16.2v5.8c0,0.6-0.5,1.2-1.2,1.2h-2.7v5.2c0,0.6-0.5,1.2-1.2,1.2
				H99l-8.3,12.5c-0.2,0.3-0.6,0.5-1,0.5H86L90.6,124.3z"/>
		</g>
		<g>
			<path class="st0" d="M151.5,105.7h-50.7c-0.9,0-1.6-0.7-1.6-1.6v-3.7c0-0.9,0.7-1.6,1.6-1.6h50.7c0.9,0,1.6,0.7,1.6,1.6v3.7
				C153.1,105,152.4,105.7,151.5,105.7z M101.5,103.4h49.3v-2.3h-49.3V103.4z"/>
		</g>
		<g>
			<path class="st0" d="M159.9,113.1H93.2c-0.9,0-1.6-0.7-1.6-1.6v-3.7c0-0.9,0.7-1.6,1.6-1.6h66.7c0.9,0,1.6,0.7,1.6,1.6v3.7
				C161.5,112.3,160.8,113.1,159.9,113.1z M93.9,110.7h65.3v-2.3H93.9V110.7z"/>
		</g>
		<g>
			<path class="st0" d="M161.2,126.6H90.1c-0.7,0-1.4-0.5-1.6-1.2l-1.9-7.5c-0.1-0.5,0-1,0.3-1.4c0.3-0.4,0.8-0.6,1.3-0.6H165
				c0.6,0,1.1,0.3,1.4,0.8c0.3,0.5,0.3,1.1,0.1,1.6l-3.8,7.5C162.3,126.3,161.8,126.6,161.2,126.6z M90.7,124.3h70.1l3.1-6.1H89.1
				L90.7,124.3z"/>
		</g>
		<g>
			<path class="st0" d="M161.2,126.6H90.1c-0.7,0-1.4-0.5-1.6-1.2l-0.9-3.4c-0.1-0.5,0-1,0.3-1.4c0.3-0.4,0.8-0.6,1.3-0.6h73.5
				c0.6,0,1.1,0.3,1.4,0.8c0.3,0.5,0.3,1.1,0.1,1.6l-1.6,3.4C162.4,126.2,161.8,126.6,161.2,126.6z M90.7,124.3h70.1l1-2H90.2
				L90.7,124.3z"/>
		</g>
	</g>
	<g>
		<g>
			<path class="st0" d="M67.8,126.6H25.1c-0.6,0-1.2-0.5-1.2-1.2s0.5-1.2,1.2-1.2h42.7c0.6,0,1.2,0.5,1.2,1.2S68.4,126.6,67.8,126.6
				z"/>
		</g>
		<g>
			<path class="st0" d="M76.7,126.6h-3.3c-0.6,0-1.2-0.5-1.2-1.2s0.5-1.2,1.2-1.2h3.3c0.6,0,1.2,0.5,1.2,1.2S77.4,126.6,76.7,126.6z
				"/>
		</g>
		<g>
			<path class="st0" d="M67.8,114.1h-34c-0.6,0-1.2-0.5-1.2-1.2s0.5-1.2,1.2-1.2h34c0.6,0,1.2,0.5,1.2,1.2S68.4,114.1,67.8,114.1z"
				/>
		</g>
		<g>
			<path class="st0" d="M76.6,101.7h-9.9c-0.6,0-1.2-0.5-1.2-1.2s0.5-1.2,1.2-1.2h9.9c0.6,0,1.2,0.5,1.2,1.2S77.3,101.7,76.6,101.7z
				"/>
		</g>
		<g>
			<path class="st0" d="M60.3,101.7H47.2c-0.6,0-1.2-0.5-1.2-1.2s0.5-1.2,1.2-1.2h13.2c0.6,0,1.2,0.5,1.2,1.2S61,101.7,60.3,101.7z"
				/>
		</g>
		<g>
			<path class="st0" d="M70.3,89.2H55.4c-0.6,0-1.2-0.5-1.2-1.2s0.5-1.2,1.2-1.2h14.9c0.6,0,1.2,0.5,1.2,1.2S70.9,89.2,70.3,89.2z"
				/>
		</g>
		<g>
			<path class="st0" d="M51,89.2h-2.2c-0.6,0-1.2-0.5-1.2-1.2s0.5-1.2,1.2-1.2H51c0.6,0,1.2,0.5,1.2,1.2S51.6,89.2,51,89.2z"/>
		</g>
	</g>
	<g>
		<g>
			<path class="st0" d="M155.1,55.4h-42.7c-0.6,0-1.2-0.5-1.2-1.2s0.5-1.2,1.2-1.2h42.7c0.6,0,1.2,0.5,1.2,1.2
				S155.7,55.4,155.1,55.4z"/>
		</g>
		<g>
			<path class="st0" d="M164,55.4h-3.3c-0.6,0-1.2-0.5-1.2-1.2s0.5-1.2,1.2-1.2h3.3c0.6,0,1.2,0.5,1.2,1.2S164.7,55.4,164,55.4z"/>
		</g>
		<g>
			<path class="st0" d="M150.8,43h-12.6c-0.6,0-1.2-0.5-1.2-1.2c0-0.6,0.5-1.2,1.2-1.2h12.6c0.6,0,1.2,0.5,1.2,1.2
				C151.9,42.4,151.4,43,150.8,43z"/>
		</g>
		<g>
			<path class="st0" d="M133.8,43h-17c-0.6,0-1.2-0.5-1.2-1.2c0-0.6,0.5-1.2,1.2-1.2h17c0.6,0,1.2,0.5,1.2,1.2
				C134.9,42.4,134.4,43,133.8,43z"/>
		</g>
		<g>
			<path class="st0" d="M142.9,30.5h-30.4c-0.6,0-1.2-0.5-1.2-1.2s0.5-1.2,1.2-1.2h30.4c0.6,0,1.2,0.5,1.2,1.2
				S143.6,30.5,142.9,30.5z"/>
		</g>
		<g>
			<path class="st0" d="M134.9,18h-9.4c-0.6,0-1.2-0.5-1.2-1.2s0.5-1.2,1.2-1.2h9.4c0.6,0,1.2,0.5,1.2,1.2S135.5,18,134.9,18z"/>
		</g>
		<g>
			<path class="st0" d="M121,18h-2.2c-0.6,0-1.2-0.5-1.2-1.2s0.5-1.2,1.2-1.2h2.2c0.6,0,1.2,0.5,1.2,1.2S121.7,18,121,18z"/>
		</g>
	</g>
</g>
</svg>
