<?xml version="1.0" encoding="utf-8"?>
<!-- Generator: Adobe Illustrator 22.0.1, SVG Export Plug-In . SVG Version: 6.00 Build 0)  -->
<svg version="1.1" id="Layer_1" xmlns="http://www.w3.org/2000/svg" xmlns:xlink="http://www.w3.org/1999/xlink" x="0px" y="0px"
	 viewBox="0 0 198 134" style="enable-background:new 0 0 198 134;" xml:space="preserve">
<style type="text/css">
	.st0{fill:none;}
	.st1{fill:none;stroke:#1A1A1A;stroke-width:2.4;stroke-linecap:round;stroke-linejoin:round;stroke-miterlimit:22.9256;}
	.st2{fill:none;stroke:#282D33;stroke-width:2.4;}
</style>
<rect id="Rectangle_85" class="st0" width="198" height="134"/>
<g>
	<path class="st1" d="M312.7,54.3l8.3-4.4l-3.8-8.8c1.3-1.2,2.4-2.6,3.3-4.1l9.3,1.9l2.7-9l-8.8-3.6c0-1.8-0.1-3.5-0.5-5.2l7.9-5.2
		l-4.4-8.2l-8.7,3.7c-1.2-1.3-2.6-2.4-4.1-3.3l1.9-9.3l-9-2.7l-3.6,8.8c-1.8,0-3.5,0.1-5.2,0.5l-5.2-7.9l-8.3,4.4l3.7,8.7
		c-1.3,1.2-2.4,2.6-3.3,4.1l-9.2-1.9l-2.7,9l8.8,3.6c0,1.8,0.1,3.5,0.5,5.2l-7.9,5.2l4.4,8.3l8.7-3.7c1.2,1.3,2.6,2.4,4.1,3.3
		l-1.9,9.3l9,2.7l3.6-8.8c1.8,0,3.5-0.1,5.2-0.5L312.7,54.3L312.7,54.3z"/>
	<path class="st1" d="M305.1,18.1c-4.8-1.4-8.7,0.7-10.2,5.4c-1.4,4.8,0.7,8.7,5.4,10.2c4.8,1.4,8.7-0.7,10.2-5.4
		C312,23.5,309.9,19.5,305.1,18.1L305.1,18.1z"/>
	<path class="st1" d="M365.8,117.3l10.8-5.8l-4.8-11.4c1.6-1.6,3.1-3.3,4.3-5.3l12.1,2.5l3.5-11.7L380.2,81c0.1-2.3-0.2-4.6-0.7-6.8
		l10.3-6.8L384,56.6l-11.4,4.8c-1.6-1.6-3.3-3.1-5.3-4.3l2.5-12.1l-11.7-3.5L353.5,53c-2.3-0.1-4.6,0.2-6.8,0.7L340,43.1l-10.8,5.8
		l4.8,11.4c-1.6,1.6-3.1,3.3-4.3,5.3l-12.1-2.5l-3.5,11.7l11.5,4.6c-0.1,2.3,0.2,4.6,0.7,6.8l-10.4,6.9l5.8,10.8l11.4-4.8
		c1.6,1.6,3.3,3.1,5.3,4.3l-2.5,12.1l11.7,3.5l4.6-11.5c2.3,0.1,4.6-0.2,6.8-0.7L365.8,117.3L365.8,117.3z"/>
	<path class="st1" d="M357.1,66.4c-7.6-2.3-15.7,2-18,9.6c-2.3,7.6,2,15.7,9.6,18c7.6,2.3,15.7-2,18-9.6
		C369.1,76.7,364.8,68.7,357.1,66.4L357.1,66.4z"/>
</g>
<g>
	<path class="st2" d="M109.5,12.9L98.7,6.7l-5.5,6c-1.3-0.4-2.7-0.8-4.1-1L87.5,4H75.1l-1.7,7.7c-1.5,0.3-2.9,0.7-4.3,1.1L64,7.2
		l-10.8,6.2l2.3,6.9c-1.3,1.1-2.5,2.2-3.6,3.4l-6.6-2.1l-6.2,10.7l4.9,4.4c-0.7,1.7-1.2,3.6-1.6,5.4l-6.1,1.3l0,12.3l5.8,1.2
		c0.4,2.1,0.9,4.1,1.6,6.1l-4.1,3.7l6.2,10.7l5.2-1.6c1.4,1.7,3,3.3,4.8,4.7l-1.6,4.8l10.8,6.1 M108.5,79 M70.6,68.7
		C63.6,64.8,58.9,57.5,58.9,49c0-12.5,10.2-22.6,22.8-22.6c9.3,0,17.3,5.5,20.8,13.3"/>
	<g>
		<path class="st2" d="M161.7,86.5c0,24-19.7,43.5-44,43.5c-24.3,0-44-19.5-44-43.5c0-24,19.7-43.5,44-43.5
			C142,42.9,161.7,62.4,161.7,86.5z"/>
		<g>
			<path class="st2" d="M126.6,33.3c0,1-0.9,1.9-1.9,1.9h-13.9c-1,0-1.9-0.8-1.9-1.9l0-8.9c0-1,0.9-1.9,1.9-1.9l13.9,0
				c1.1,0,1.9,0.8,1.9,1.9L126.6,33.3z"/>
		</g>
		<g>
			<g>
				<g>
					<path class="st2" d="M83.8,50.8l-3.2-4.6c-0.4-0.5-0.2-1.3,0.3-1.6l7.1-4.8c0.5-0.4,1.3-0.2,1.6,0.3l3.2,4.6"/>
				</g>
			</g>
		</g>
		<g>
			<g>
				<g>
					<path class="st2" d="M151.7,50.8l3.2-4.6c0.4-0.5,0.2-1.3-0.3-1.6l-7.1-4.8c-0.5-0.4-1.3-0.2-1.6,0.3l-3.2,4.6"/>
				</g>
			</g>
		</g>
		<path class="st2" d="M117.2,63.8c0.2,0,0.3,0,0.5,0c12.6,0,22.8,10.1,22.9,22.5"/>
		<g>
			<line class="st2" x1="117.4" y1="50.5" x2="117.4" y2="56.6"/>
			<line class="st2" x1="99.3" y1="55.5" x2="102.3" y2="60.8"/>
			<line class="st2" x1="86.1" y1="68.8" x2="91.4" y2="71.8"/>
			<line class="st2" x1="81.4" y1="86.8" x2="87.5" y2="86.8"/>
			<line class="st2" x1="86.5" y1="104.7" x2="91.7" y2="101.7"/>
			<line class="st2" x1="99.9" y1="117.8" x2="102.9" y2="112.5"/>
			<line class="st2" x1="118.1" y1="122.4" x2="118.1" y2="116.4"/>
			<line class="st2" x1="136.2" y1="117.4" x2="133.1" y2="112.2"/>
			<line class="st2" x1="149.3" y1="104.1" x2="144" y2="101.1"/>
			<line class="st2" x1="154" y1="86.1" x2="147.9" y2="86.1"/>
			<line class="st2" x1="149" y1="68.2" x2="143.7" y2="71.2"/>
			<line class="st2" x1="135.6" y1="55.2" x2="132.5" y2="60.4"/>
		</g>
		<line class="st2" x1="120.2" y1="83.4" x2="129.9" y2="73.6"/>
		<g>
			<path class="st2" d="M121.9,86.4c0-2.3-1.9-4.2-4.2-4.2c-2.3,0-4.2,1.9-4.2,4.2c0,2.3,1.9,4.2,4.2,4.2
				C120,90.6,121.9,88.7,121.9,86.4z"/>
		</g>
		<line class="st2" x1="117.7" y1="41.6" x2="117.7" y2="35"/>
	</g>
</g>
</svg>
