<svg enable-background="new 0 0 130 50" viewBox="0 0 130 50" xmlns="http://www.w3.org/2000/svg"><g fill="#fff"><path d="m85 25.9c.1-.5.3-.9.4-1.4.6-2.3 1.2-4.5 1.9-6.8.1-.4.1-.5-.3-.8-.1-.1-.1-.2-.1-.4h4.4c-.1.2-.1.4-.2.5-.5.6-.8 1.4-1 2.1-1.1 3.2-2.1 6.5-3.2 9.7 0 .1-.1.2-.1.4s0 .4.2.5c.3.1.3.3.2.5-1.7 0-3.3 0-5 0 0-.2-.1-.3.2-.5.2-.1.2-.4.2-.6-.1-.4-.2-.8-.3-1.1-.7-2.8-1.4-5.5-2-8.3 0-.1 0-.1-.1-.2-.1.3-.1.6-.2.8-.7 2.9-1.4 5.7-2.2 8.6 0 .1-.1.2-.1.4s0 .4.2.5.2.3.2.5c-1.7 0-3.5 0-5.2 0 0-.2-.1-.4.2-.5.2-.1.3-.4.2-.6-.2-.6-.4-1.2-.5-1.8-1-3.2-2-6.4-3-9.6-.1-.3-.3-.6-.5-.8-.1-.1-.1-.2-.1-.4h4.7c0 .2.1.4-.2.4-.2.1-.3.3-.2.6.1.4.2.8.3 1.2.6 2.3 1.3 4.6 1.9 6.9 0 .1 0 .1.1.2 0-.1.1-.2.1-.2.7-2.6 1.4-5.3 2.1-7.9.1-.4.1-.7-.3-.9-.1 0-.1-.2-.1-.4h5.7c.1.2 0 .3-.2.5-.2.1-.3.4-.2.6.3 1.2.6 2.4.9 3.6.4 1.6.8 3.1 1.2 4.7z"/><path d="m52.5 30.3c-1.8 0-3.5 0-5.2 0 0-.2 0-.4.2-.5s.2-.3.2-.5c0-.1-.1-.2-.1-.3-.7-1.2-1.5-2.5-2.2-3.7 0-.1-.1-.1-.2-.1-.8 0-1.6 0-2.4 0 0 0 0 0-.1 0v.2 3.6c0 .4.1.7.5.8.1 0 .1.2.2.4-1.7 0-3.3 0-4.9 0-.1-.2 0-.4.2-.4s.3-.2.4-.4c0-.1 0-.3 0-.4 0-1.9 0-3.9 0-5.8 0-.3 0-.6.2-.9.1-.1.1-.2.1-.3-.3-.1-.6-.2-1-.3s-.7-.2-1.1-.3c-.1 0-.2 0-.3 0-.4.2-.8.1-1-.3-.2-.3-.1-.8.3-1 .3-.2.7-.1 1 .3 0 .1.1.1.1.2h.1c.7.2 1.4.4 2.1.6.5-1.3.9-2.5.9-3.9-.8 0-1.5 0-2.3 0-.1 0-.1.1-.2.1-.3.3-.7.3-1 0s-.3-.7 0-1 .7-.3 1 0c.1.1.2.1.3.1h1.9 7.2c.9 0 1.8.1 2.7.5 1.8.8 2.5 2.4 2.4 4.1-.1 1.1-.4 2.1-1.3 2.8-.5.5-1.1.8-1.8 1.1-.1 0-.2.1-.3.1.1.2.2.4.3.6.6 1 1.2 2 1.8 3.1.3.5.6.9 1.1 1.1.1.1.1.3.2.4zm-10-10.9v3.1h.1 3.6c.6 0 1.1-.1 1.7-.4.9-.5.9-1.8 0-2.3-.4-.2-.8-.3-1.2-.3-1.3 0-2.5 0-3.8 0-.1-.2-.2-.1-.4-.1z"/><path d="m55.5 16.6h.4 11.2c.5 0 .6-.1.8-.6 0-.1.2-.1.3-.2v4.6c-.2.1-.3 0-.4-.2-.1-.3-.2-.4-.5-.4-.1 0-.2 0-.2 0-2.3 0-4.7 0-7 0-.1 0-.2 0-.3 0v1.9h.3 4.3c.3 0 .5-.1.6-.4.1-.2.2-.3.4-.2v4.2c-.2.1-.3 0-.4-.2-.1-.3-.3-.4-.5-.4-.1 0-.2 0-.2 0-1.4 0-2.7 0-4.1 0-.1 0-.1 0-.2 0v2.3h.2 7.1c.5 0 .6-.1.8-.5 0-.1.2-.1.3-.2v4.6c-.1 0-.2 0-.3 0v-.1c-.1-.4-.3-.5-.7-.5-2.8 0-5.7 0-8.5 0-1 0-2.1 0-3.1 0-.1-.3-.1-.3.2-.4.2-.1.3-.2.4-.5 0-.1 0-.2 0-.3 0-3.8 0-7.6 0-11.3 0-.4-.1-.7-.5-.9-.3 0-.3-.2-.4-.3z"/><path d="m117.3 30.4c-.1-.2 0-.4.2-.5s.3-.2.4-.5c0-.1 0-.2 0-.3 0-3.8 0-7.6 0-11.3 0-.4-.1-.7-.5-.8-.1 0-.1-.2-.2-.4h.4 11.2c.6 0 .6 0 .8-.6 0-.1.2-.1.3-.2v4.6c-.2.1-.3.1-.4-.2s-.3-.4-.5-.4c-.1 0-.1 0-.2 0-2.4 0-4.7 0-7.1 0-.2 0-.3.1-.3.3v1.5c0 .2.1.2.2.2h4.3c.3 0 .5-.1.6-.4.1-.2.2-.3.4-.2v4.2c-.2.1-.3.1-.4-.2-.1-.2-.2-.4-.5-.4-.1 0-.2 0-.2 0-1.4 0-2.8 0-4.1 0-.2 0-.3.1-.3.3v1.9.2h.3 7c.4 0 .7-.1.8-.5 0-.1.2-.1.3-.2v4.6c-.2 0-.3 0-.4-.2-.1-.3-.3-.4-.6-.4-3.8 0-7.6 0-11.4 0 .1-.1 0-.1-.1-.1z"/><path d="m100.5 29.5c.6-1.4 1.2-2.8 1.8-4.2.1.1.2.1.3.2-.2.4.1.7.4 1 .7.5 1.4.8 2.2 1 1 .3 2 .4 3 .5.7 0 1.4-.1 2-.4s1-.7 1-1.4c0-.4-.2-.7-.5-1-.5-.3-1-.4-1.5-.5-1.2-.1-2.5-.3-3.7-.4-.8-.1-1.5-.2-2.2-.5-1.4-.6-2.1-1.7-2-3.3s1-2.7 2.4-3.3c.9-.5 1.9-.7 2.9-.8 1.6-.2 3.1.1 4.6.5.5.2 1.1.3 1.6.5.1 0 .2 0 .3.1.4.1.6 0 .9-.3.1 0 .2.1.3.1-.5 1.2-1 2.4-1.6 3.7-.2 0-.3-.1-.3-.3 0-.3-.2-.6-.5-.8-.5-.4-1.1-.6-1.7-.7-1.3-.3-2.7-.3-4 0-.4.1-.7.3-1.1.4-.2.1-.3.3-.4.4-.2.4-.1.7.2.9.5.3 1 .4 1.5.5.9.1 1.8.2 2.7.2 1.1.1 2.2.2 3.2.6s1.8 1.1 2.2 2.2c.5 1.8 0 3.7-1.8 4.8-1 .6-2.1 1-3.2 1.1-2.6.3-5.2-.1-7.7-1-.1 0-.1 0-.2-.1-.2-.1-.4-.1-.5.1-.3.4-.5.4-.6.2z"/><path d="m12.6 17.4c.1.4.1.8.2 1.2.1.7.2 1.4.3 2v.2c-.1.3-.2.5-.4.8-.1 0-.2-.1-.3-.1.1-.5-.2-.8-.6-1-.7-.4-1.4-.6-2.2-.7-1.2-.2-2.4-.1-3.5.4-1.3.5-2.1 1.4-2.3 2.8-.1 1.9.8 3.3 2.7 3.7 2 .5 3.8.3 5.5-.7.3-.2.5-.4.4-.8-.1-.2.1-.2.3-.3.8 1.4 1.6 2.8 2.5 4.3-.2.1-.3.2-.5 0-.3-.2-.5-.2-.7-.1-.6.3-1.3.6-1.9.8-2.3.7-4.7.8-7.1.1-1.4-.4-2.6-1.1-3.6-2.3-.8-1-1.2-2.1-1.4-3.4-.1-1.1 0-2.3.5-3.5.7-1.9 2.1-3.1 3.9-3.8 1.7-.6 3.4-.8 5.1-.6.9.1 1.7.3 2.6.5.1-.3.2-.3.6-.3h1.9c.1 0 .2-.1.3-.1.3-.2.7-.2 1 0 .3.3.3.7 0 1s-.7.3-1 0c-.1-.1-.2-.1-.4-.1-.5 0-1.2 0-1.9 0z"/><path d="m26.5 21.8c-2.7 0-4.9-2.2-4.9-4.9s2.2-4.9 4.9-4.9 4.8 2.2 4.8 4.9c0 2.8-2.2 4.9-4.8 4.9zm0-3c1 0 1.9-.8 1.9-1.9 0-1-.8-1.9-1.9-1.9-1 0-1.9.9-1.9 1.9 0 1.1.8 1.9 1.9 1.9z"/><path d="m97.7 16.6c.1.2 0 .4-.2.4-.2.1-.4.3-.4.5v.3 11.2.4c0 .2.2.4.4.4.3.1.3.2.2.5-1.6 0-3.2 0-4.8 0 0-.2-.1-.4.2-.4.2-.1.3-.2.4-.4 0-.1 0-.2 0-.3 0-3.8 0-7.6 0-11.3 0-.4-.1-.7-.5-.8-.1 0-.1-.2-.1-.4 1.6-.1 3.2-.1 4.8-.1z"/><path d="m76.7 37.6c.3-.1.2-.3.2-.5 0-1 0-2.1 0-3.1 0-.2.1-.5-.2-.6h.2 2.3c1.7 0 2.2 1.3 2.1 2.5-.1.7-.4 1.4-1.1 1.6-.3.1-.6.2-.9.2-.8 0-1.6 0-2.4 0 0-.1-.1-.1-.2-.1zm1.4-.9c.4 0 .9 0 1.3-.1s.7-.4.8-.8c.1-.5 0-.9-.4-1.3 0 0-.1-.1-.2-.1-.5-.2-1-.1-1.5-.1z"/><path d="m51.2 36.1v1.3c0 .1.1.2.2.3-.5 0-1 0-1.6 0 .3-.2.3-.5.3-.7 0-1 0-2 0-3 0-.2 0-.4-.3-.5h.2 2.8c.6 0 1 .3 1.2.8s.1 1.1-.3 1.5c-.3.3-.6.3-.9.4-.4 0-.9 0-1.3 0-.2-.1-.2-.1-.3-.1zm0-.9h1.2c.1 0 .2 0 .3-.1.2-.1.2-.2.2-.4s-.1-.3-.3-.4c-.5-.1-1-.1-1.5-.1.1.3.1.6.1 1z"/><path d="m71.4 33.1c.1.2.3.2.5.2h3.2c.2 0 .4 0 .5-.2v1.5c-.2-.3-.4-.2-.6-.2-.3 0-.6 0-.9 0v.1 2.7c0 .1.1.2.1.4-.5 0-1 0-1.5 0 .3-.3.2-.6.2-1 0-.7 0-1.3 0-2 0-.1 0-.2 0-.3-.4 0-.8 0-1.2 0-.1 0-.2.1-.3.2 0-.4 0-.9 0-1.4z"/><path d="m59 34.6c-.1-.2-.3-.2-.5-.2-.3 0-.7 0-1 0v.2 2.4c0 .2-.1.4.2.6-.5 0-1 0-1.6 0 .3-.2.3-.4.3-.7 0-.8 0-1.5 0-2.3 0-.1 0-.2 0-.3-.4 0-.9 0-1.3 0-.1 0-.2.1-.3.2 0-.5 0-1 0-1.5.2.4.5.2.8.2h2.7c.2 0 .5.1.6-.2.2.6.2 1.1.1 1.6z"/><path d="m67.1 37.6c.2-.1.2-.3.2-.5 0-1.1 0-2.2 0-3.3 0-.1-.1-.3-.1-.4h1.5c-.4.3-.2.6-.2.9v2.1.3h.5 1.9c.2 0 .4 0 .4-.2.1.1.1 1.2 0 1.5-.1-.3-.3-.2-.6-.2-1.1 0-2.2 0-3.3 0-.1-.2-.2-.2-.3-.2z"/><path d="m59.5 33.3h1.7c-.2.2-.1.3 0 .4.2.3.4.7.7 1.1.3-.4.5-.8.8-1.2 0-.1 0-.2 0-.3h1.4v.1c-.5.7-1 1.5-1.5 2.2-.1.1-.1.2-.1.3v1.1c0 .2-.1.4.2.6-.5 0-1 0-1.5 0 .4-.3.1-.7.2-1.1s-.1-.7-.3-1c-.3-.5-.7-1-1-1.5-.2-.2-.4-.4-.6-.7z"/><path d="m24.1 29.6c0-.2 0-.5 0-.7 0-.3 0-.5-.2-.7s-.1-.7.1-.9c.3-.2.7-.2.9.1.3.3.3.7 0 .9-.1.1-.2.3-.2.4v1.9c0 .3-.1.5-.4.5-.2 0-.4-.2-.4-.5.2-.4.2-.7.2-1z"/><path d="m33.9 24c0-.4.3-.7.7-.7.3 0 .6.2.7.6 0 .1.1.2.2.3.5.4 1.1.8 1.6 1.2.2.2.3.3.2.5s-.4.3-.6.1c-.5-.4-1.1-.8-1.6-1.2-.1-.1-.2-.1-.4-.1-.4 0-.8-.3-.8-.7z"/><path d="m17.8 24.6c-.1.1-.2.1-.3.2-.5.4-.9.8-1.4 1.2 0 0-.1.1-.1.1-.2.2-.4.2-.6 0s-.1-.4.1-.6c.4-.4.8-.7 1.3-1.1.1-.1.1-.1.2-.1.2-.1.2-.2.3-.4 0-.4.4-.6.8-.6s.6.4.6.7c-.2.4-.5.7-.9.6z"/><path d="m16.5 20.6c0 .5-.4.8-.9.7-.1 0-.2 0-.3 0-.6.3-1.2.6-1.8.9-.2.1-.3.1-.5 0-.2-.2-.2-.5.1-.6.6-.3 1.2-.6 1.8-.9.1-.1.2-.2.2-.3.1-.3.4-.5.8-.5.4.1.6.4.6.7z"/><path d="m31.9 25.8c.4 0 .8.4.7.8 0 .2 0 .3.1.4.4.6.7 1.1 1.1 1.7.1.2.1.3 0 .5-.1.1-.3.2-.4.1-.1 0-.1-.1-.2-.2-.4-.6-.7-1.1-1.1-1.7-.1-.1-.1-.2-.3-.2-.3-.1-.6-.4-.5-.8-.1-.4.2-.6.6-.6z"/><path d="m20.8 26c.4 0 .7.3.7.6 0 .4-.2.7-.5.8-.1 0-.2.1-.3.2-.4.5-.8 1.1-1.2 1.7-.1.2-.3.3-.5.2s-.3-.4-.1-.6c.4-.5.8-1.1 1.1-1.6.1-.1.1-.2.1-.4 0-.6.3-.9.7-.9z"/><path d="m28.9 27.6s0 .2-.1.2c-.2.2-.1.4-.1.6.1.6.2 1.2.3 1.7.1.3 0 .5-.2.5-.2.1-.4-.1-.5-.3-.1-.7-.3-1.3-.4-2 0-.1-.1-.2-.2-.3-.3-.2-.4-.5-.2-.8.1-.3.5-.5.8-.4.4.2.6.4.6.8z"/></g></svg>