<svg xmlns="http://www.w3.org/2000/svg" width="198" height="134" viewBox="0 0 198 134">
  <g id="Group_761" data-name="Group 761" transform="translate(-1013 -1684)">
    <g id="Group_694" data-name="Group 694" transform="translate(1045 1690)">
      <g id="Group_670" data-name="Group 670" transform="translate(13.857)">
        <path id="Path_125" data-name="Path 125" d="M84.071,120A60.047,60.047,0,0,1,24.1,60.029a58.349,58.349,0,0,1,.69-8.97,1.163,1.163,0,0,1,2.3.345,61.535,61.535,0,0,0-.632,8.625,57.517,57.517,0,1,0,16.56-40.594,1.138,1.138,0,0,1-1.61-1.61A59.988,59.988,0,1,1,84.071,120Z" transform="translate(-24.1)" fill="#2e2e2e"/>
      </g>
      <g id="Group_675" data-name="Group 675" transform="translate(0 17.537)">
        <g id="Group_671" data-name="Group 671">
          <path id="Path_126" data-name="Path 126" d="M40.824,74.947a.979.979,0,0,1-.4-.057L15.87,65.344H3.047A3.068,3.068,0,0,1,0,62.3V33.547A3.068,3.068,0,0,1,3.047,30.5H38.179a3.068,3.068,0,0,1,3.047,3.047V62.3a3.068,3.068,0,0,1-3.047,3.047h-3.22l6.67,7.647a1.223,1.223,0,0,1,.4.862,1.24,1.24,0,0,1-1.207,1.092ZM3.047,32.742a.761.761,0,0,0-.747.747V62.239a.761.761,0,0,0,.747.747H16.1a.978.978,0,0,1,.4.058l20.412,7.992-5.347-6.095a1.157,1.157,0,0,1-.172-1.207,1.136,1.136,0,0,1,1.035-.69h5.75a.761.761,0,0,0,.747-.747V33.547a.761.761,0,0,0-.747-.747H3.047Z" transform="translate(0 -30.5)" fill="#2e2e2e"/>
        </g>
        <g id="Group_672" data-name="Group 672" transform="translate(6.21 8.452)">
          <path id="Path_127" data-name="Path 127" d="M38.572,47.5H11.95a1.15,1.15,0,0,1,0-2.3H38.629a1.153,1.153,0,0,1,1.15,1.15A1.2,1.2,0,0,1,38.572,47.5Z" transform="translate(-10.8 -45.2)" fill="#2e2e2e"/>
        </g>
        <g id="Group_673" data-name="Group 673" transform="translate(6.21 15.87)">
          <path id="Path_128" data-name="Path 128" d="M38.572,60.4H11.95a1.15,1.15,0,1,1,0-2.3H38.629a1.153,1.153,0,0,1,1.15,1.15A1.245,1.245,0,0,1,38.572,60.4Z" transform="translate(-10.8 -58.1)" fill="#2e2e2e"/>
        </g>
        <g id="Group_674" data-name="Group 674" transform="translate(6.21 23.23)">
          <path id="Path_129" data-name="Path 129" d="M38.572,73.2H11.95a1.15,1.15,0,1,1,0-2.3H38.629a1.153,1.153,0,0,1,1.15,1.15A1.245,1.245,0,0,1,38.572,73.2Z" transform="translate(-10.8 -70.9)" fill="#2e2e2e"/>
        </g>
      </g>
      <g id="Group_693" data-name="Group 693" transform="translate(39.745 8.395)">
        <g id="Group_691" data-name="Group 691">
          <g id="Group_678" data-name="Group 678" transform="translate(20.744 39.157)">
            <g id="Group_676" data-name="Group 676">
              <path id="Path_130" data-name="Path 130" d="M109.8,85a2.3,2.3,0,1,1-2.3-2.3A2.307,2.307,0,0,1,109.8,85Z" transform="translate(-105.2 -82.7)" fill="#2e2e2e"/>
            </g>
            <g id="Group_677" data-name="Group 677" transform="translate(22.137)">
              <path id="Path_131" data-name="Path 131" d="M148.3,85a2.3,2.3,0,1,1-2.3-2.3A2.307,2.307,0,0,1,148.3,85Z" transform="translate(-143.7 -82.7)" fill="#2e2e2e"/>
            </g>
          </g>
          <g id="Group_690" data-name="Group 690">
            <g id="Group_679" data-name="Group 679" transform="translate(5.276 35.937)">
              <path id="Path_132" data-name="Path 132" d="M83.762,88.025a5.462,5.462,0,0,1,0-10.925,1.153,1.153,0,0,1,1.15,1.15v8.625A1.153,1.153,0,0,1,83.762,88.025Zm-1.15-8.395A3.12,3.12,0,0,0,80.6,82.562a3.2,3.2,0,0,0,2.012,2.932Z" transform="translate(-78.3 -77.1)" fill="#2e2e2e"/>
            </g>
            <g id="Group_680" data-name="Group 680" transform="translate(0 78.313)">
              <path id="Path_133" data-name="Path 133" d="M103.207,184.092A59.736,59.736,0,0,1,69.628,173.8a1.084,1.084,0,0,1-.4-1.38,36.547,36.547,0,0,1,22.712-21.562,1.115,1.115,0,0,1,1.035.173,1.2,1.2,0,0,1,.46.92v7.762c0,3.22,4.485,5.98,9.775,5.98s9.775-2.76,9.775-5.98V151.95a1.2,1.2,0,0,1,.46-.92,1.115,1.115,0,0,1,1.035-.173,36.843,36.843,0,0,1,22.712,21.562,1.232,1.232,0,0,1-.4,1.38A59.736,59.736,0,0,1,103.207,184.092ZM71.7,172.42a57.653,57.653,0,0,0,63.019,0,34.945,34.945,0,0,0-19.435-18.86v6.095c0,4.657-5.29,8.28-12.075,8.28s-12.075-3.622-12.075-8.28V153.56A34.769,34.769,0,0,0,71.7,172.42Z" transform="translate(-69.124 -150.8)" fill="#2e2e2e"/>
            </g>
            <g id="Group_681" data-name="Group 681" transform="translate(22.008 70.601)">
              <path id="Path_134" data-name="Path 134" d="M119.475,162.291c-6.785,0-12.075-3.622-12.075-8.28V138.544a1.28,1.28,0,0,1,.517-.977,1.068,1.068,0,0,1,1.092-.058,20.875,20.875,0,0,0,9.43,2.242h1.955a20.526,20.526,0,0,0,9.43-2.242,1.061,1.061,0,0,1,1.092.058,1.186,1.186,0,0,1,.575.977v15.467C131.549,158.669,126.26,162.291,119.475,162.291ZM109.7,140.327v13.685c0,3.22,4.485,5.98,9.775,5.98s9.775-2.76,9.775-5.98V140.327a23.063,23.063,0,0,1-8.8,1.725H118.5A23.063,23.063,0,0,1,109.7,140.327Z" transform="translate(-107.4 -137.386)" fill="#2e2e2e"/>
            </g>
            <g id="Group_682" data-name="Group 682" transform="translate(9.589 31.797)">
              <path id="Path_135" data-name="Path 135" d="M111.272,113.369h-1.955A23.559,23.559,0,0,1,85.8,89.852V71.28a1.108,1.108,0,0,1,.862-1.092,1.211,1.211,0,0,1,.747-.287H88.9a1.035,1.035,0,0,1,.862.4c1.782,1.955,9.6,4.082,20.527,4.082s18.745-2.127,20.527-4.082a1.223,1.223,0,0,1,.862-.4h1.495a1.093,1.093,0,0,1,.747.287,1.108,1.108,0,0,1,.862,1.092V89.852A23.472,23.472,0,0,1,121.737,110.9,22.79,22.79,0,0,1,111.272,113.369ZM88.1,72.2V89.852a21.3,21.3,0,0,0,21.217,21.217h1.955a20.526,20.526,0,0,0,9.43-2.242,21.182,21.182,0,0,0,11.787-18.975V72.2a.056.056,0,0,1-.057-.057h-.288c-3.047,2.7-11.672,4.485-21.85,4.485s-18.8-1.782-21.85-4.485L88.1,72.2Zm22.195,25.069a7.583,7.583,0,0,1-7.59-7.59,1.153,1.153,0,0,1,1.15-1.15h12.88a1.153,1.153,0,0,1,1.15,1.15A7.583,7.583,0,0,1,110.294,97.269Zm-5.117-6.44a5.3,5.3,0,0,0,10.35,0Z" transform="translate(-85.8 -69.9)" fill="#2e2e2e"/>
            </g>
            <g id="Group_683" data-name="Group 683" transform="translate(26.493 50.426)">
              <path id="Path_136" data-name="Path 136" d="M122.79,111.04a7.583,7.583,0,0,1-7.59-7.59,1.153,1.153,0,0,1,1.15-1.15h12.88a1.153,1.153,0,0,1,1.15,1.15A7.583,7.583,0,0,1,122.79,111.04Zm-5.117-6.44a5.3,5.3,0,0,0,10.35,0Z" transform="translate(-115.2 -102.3)" fill="#2e2e2e"/>
            </g>
            <g id="Group_684" data-name="Group 684" transform="translate(56.45 35.937)">
              <path id="Path_137" data-name="Path 137" d="M168.45,88.025a1.153,1.153,0,0,1-1.15-1.15V78.25a1.153,1.153,0,0,1,1.15-1.15,5.5,5.5,0,0,1,5.462,5.462A5.423,5.423,0,0,1,168.45,88.025Zm1.15-8.395v5.922a3.12,3.12,0,0,0,2.012-2.932A3.063,3.063,0,0,0,169.6,79.63Z" transform="translate(-167.3 -77.1)" fill="#2e2e2e"/>
            </g>
            <g id="Group_685" data-name="Group 685" transform="translate(7.404 1.48)">
              <path id="Path_138" data-name="Path 138" d="M133.461,48.469H83.9a1.108,1.108,0,0,1-1.092-.862,22.974,22.974,0,0,1-.8-5.922c0-12.3,9.947-22.827,23.115-24.494a1.116,1.116,0,0,1,.92.287,1.223,1.223,0,0,1,.4.862V45.824h4.485V18.4a1.035,1.035,0,0,1,.4-.862,1.061,1.061,0,0,1,.92-.287c13.167,1.61,23.115,12.132,23.115,24.494a23.316,23.316,0,0,1-.8,5.922A1.121,1.121,0,0,1,133.461,48.469Zm-20.24-2.3h19.32a19.77,19.77,0,0,0,.517-4.427c0-10.752-8.452-20.01-19.837-22.022V46.169Zm-28.4,0h19.32V19.719C92.752,21.732,84.3,30.931,84.3,41.741A19.771,19.771,0,0,0,84.817,46.169Z" transform="translate(-82 -17.175)" fill="#2e2e2e"/>
            </g>
            <g id="Group_686" data-name="Group 686" transform="translate(10.911 30.474)">
              <path id="Path_139" data-name="Path 139" d="M111.272,75.65c-10.695,0-19.607-1.955-22.252-4.83a3.383,3.383,0,0,1-.92-2.012,1.268,1.268,0,0,1,.345-.862,1.135,1.135,0,0,1,.8-.345h43.987a1.044,1.044,0,0,1,.8.345,1.17,1.17,0,0,1,.345.862,3.384,3.384,0,0,1-.92,2.012C130.879,73.695,121.967,75.65,111.272,75.65ZM91.492,69.9c2.7,1.782,10,3.45,19.78,3.45s17.077-1.667,19.78-3.45Z" transform="translate(-88.1 -67.6)" fill="#2e2e2e"/>
            </g>
            <g id="Group_687" data-name="Group 687" transform="translate(6.311 30.647)">
              <path id="Path_140" data-name="Path 140" d="M84.987,71.58H81.25a1.153,1.153,0,0,1-1.15-1.15V69.05a1.153,1.153,0,0,1,1.15-1.15h3.737a1.153,1.153,0,0,1,1.15,1.15v1.38A1.153,1.153,0,0,1,84.987,71.58Z" transform="translate(-80.1 -67.9)" fill="#2e2e2e"/>
            </g>
            <g id="Group_688" data-name="Group 688" transform="translate(55.818 30.647)">
              <path id="Path_141" data-name="Path 141" d="M171.087,71.58H167.35a1.153,1.153,0,0,1-1.15-1.15V69.05a1.153,1.153,0,0,1,1.15-1.15h3.737a1.153,1.153,0,0,1,1.15,1.15v1.38A1.153,1.153,0,0,1,171.087,71.58Z" transform="translate(-166.2 -67.9)" fill="#2e2e2e"/>
            </g>
            <g id="Group_689" data-name="Group 689" transform="translate(29.541)">
              <path id="Path_142" data-name="Path 142" d="M128.435,47.087H121.65a1.153,1.153,0,0,1-1.15-1.15V15.75a1.153,1.153,0,0,1,1.15-1.15h6.785a1.153,1.153,0,0,1,1.15,1.15V45.937A1.153,1.153,0,0,1,128.435,47.087Zm-5.635-2.3h4.485V16.9H122.8Z" transform="translate(-120.5 -14.6)" fill="#2e2e2e"/>
            </g>
          </g>
        </g>
        <g id="Group_692" data-name="Group 692" transform="translate(9.186 80.375)">
          <path id="Path_143" data-name="Path 143" d="M110,185.616a60.63,60.63,0,0,1-16.042-2.185H93.84a20.532,20.532,0,0,1-2.3-.69h-.057c-.747-.23-1.495-.517-2.3-.8l-.115-.057a.056.056,0,0,1-.057-.057c-1.15-.46-2.242-.862-3.22-1.265a1.136,1.136,0,0,1-.69-1.035V161.064a1.17,1.17,0,0,1,.345-.862,37.85,37.85,0,0,1,8.165-5.692,1.2,1.2,0,0,1,1.725,1.035v17.02h29.382v-17.02a1.186,1.186,0,0,1,.575-.977,1.167,1.167,0,0,1,1.15-.057,35.933,35.933,0,0,1,8.165,5.692,1.17,1.17,0,0,1,.345.862v18.4a1.136,1.136,0,0,1-.69,1.035c-.977.4-2.012.862-3.22,1.265a.056.056,0,0,0-.057.057l-.115.057c-.8.288-1.61.575-2.3.8h-.058c-.8.287-1.61.517-2.3.69H126.1A58.825,58.825,0,0,1,110,185.616Zm-15.64-4.427h.115a58.086,58.086,0,0,0,31.049,0h.115c.632-.172,1.322-.4,2.127-.632h.058c.69-.23,1.437-.46,2.242-.747h.115c.862-.345,1.725-.632,2.472-.977V161.639a32.721,32.721,0,0,0-5.635-4.082v16.215a1.153,1.153,0,0,1-1.15,1.15H94.185a1.153,1.153,0,0,1-1.15-1.15V157.557a35.1,35.1,0,0,0-5.635,4.082v17.192c.747.345,1.552.633,2.472.977h.115c.8.288,1.495.517,2.242.747h.057C93.035,180.786,93.725,180.959,94.357,181.189Z" transform="translate(-85.1 -154.386)" fill="#2e2e2e"/>
        </g>
      </g>
    </g>
    <rect id="Rectangle_85" data-name="Rectangle 85" width="198" height="134" transform="translate(1013 1684)" fill="none"/>
  </g>
</svg>
