<svg height="134" viewBox="0 0 198 134" width="198" xmlns="http://www.w3.org/2000/svg"><g fill="#2e2e2e"><path d="m84.071 120a60.047 60.047 0 0 1 -59.971-59.971 58.349 58.349 0 0 1 .69-8.97 1.163 1.163 0 0 1 2.3.345 61.535 61.535 0 0 0 -.632 8.625 57.517 57.517 0 1 0 16.56-40.594 1.138 1.138 0 0 1 -1.61-1.61 59.988 59.988 0 1 1 42.663 102.175z" transform="translate(21.757 6)"/><path d="m40.824 74.947a.979.979 0 0 1 -.4-.057l-24.554-9.546h-12.823a3.068 3.068 0 0 1 -3.047-3.044v-28.753a3.068 3.068 0 0 1 3.047-3.047h35.132a3.068 3.068 0 0 1 3.047 3.047v28.753a3.068 3.068 0 0 1 -3.047 3.047h-3.22l6.67 7.647a1.223 1.223 0 0 1 .4.862 1.24 1.24 0 0 1 -1.207 1.092zm-37.777-42.205a.761.761 0 0 0 -.747.747v28.75a.761.761 0 0 0 .747.747h13.053a.978.978 0 0 1 .4.058l20.412 7.992-5.347-6.095a1.157 1.157 0 0 1 -.172-1.207 1.136 1.136 0 0 1 1.035-.69h5.75a.761.761 0 0 0 .747-.747v-28.75a.761.761 0 0 0 -.747-.747h-35.131z" transform="translate(32 -6.963)"/><path d="m38.572 47.5h-26.622a1.15 1.15 0 0 1 0-2.3h26.679a1.153 1.153 0 0 1 1.15 1.15 1.2 1.2 0 0 1 -1.207 1.15z" transform="translate(27.41 -13.211)"/><path d="m38.572 60.4h-26.622a1.15 1.15 0 1 1 0-2.3h26.679a1.153 1.153 0 0 1 1.15 1.15 1.245 1.245 0 0 1 -1.207 1.15z" transform="translate(27.41 -18.693)"/><path d="m38.572 73.2h-26.622a1.15 1.15 0 1 1 0-2.3h26.679a1.153 1.153 0 0 1 1.15 1.15 1.245 1.245 0 0 1 -1.207 1.15z" transform="translate(27.41 -24.133)"/><path d="m109.8 85a2.3 2.3 0 1 1 -2.3-2.3 2.307 2.307 0 0 1 2.3 2.3z" transform="translate(-12.711 -29.148)"/><path d="m148.3 85a2.3 2.3 0 1 1 -2.3-2.3 2.307 2.307 0 0 1 2.3 2.3z" transform="translate(-29.074 -29.148)"/><path d="m83.762 88.025a5.462 5.462 0 0 1 0-10.925 1.153 1.153 0 0 1 1.15 1.15v8.625a1.153 1.153 0 0 1 -1.15 1.15zm-1.15-8.395a3.12 3.12 0 0 0 -2.012 2.932 3.2 3.2 0 0 0 2.012 2.932z" transform="translate(-1.279 -26.768)"/><path d="m103.207 184.092a59.736 59.736 0 0 1 -33.579-10.292 1.084 1.084 0 0 1 -.4-1.38 36.547 36.547 0 0 1 22.712-21.562 1.115 1.115 0 0 1 1.035.173 1.2 1.2 0 0 1 .46.92v7.762c0 3.22 4.485 5.98 9.775 5.98s9.775-2.76 9.775-5.98v-7.763a1.2 1.2 0 0 1 .46-.92 1.115 1.115 0 0 1 1.035-.173 36.843 36.843 0 0 1 22.712 21.562 1.232 1.232 0 0 1 -.4 1.38 59.736 59.736 0 0 1 -33.585 10.293zm-31.507-11.672a57.653 57.653 0 0 0 63.019 0 34.945 34.945 0 0 0 -19.435-18.86v6.095c0 4.657-5.29 8.28-12.075 8.28s-12.075-3.622-12.075-8.28v-6.095a34.769 34.769 0 0 0 -19.434 18.86z" transform="translate(2.621 -58.092)"/><path d="m119.475 162.291c-6.785 0-12.075-3.622-12.075-8.28v-15.467a1.28 1.28 0 0 1 .517-.977 1.068 1.068 0 0 1 1.092-.058 20.875 20.875 0 0 0 9.43 2.242h1.955a20.526 20.526 0 0 0 9.43-2.242 1.061 1.061 0 0 1 1.092.058 1.186 1.186 0 0 1 .575.977v15.467c.058 4.658-5.231 8.28-12.016 8.28zm-9.775-21.964v13.685c0 3.22 4.485 5.98 9.775 5.98s9.775-2.76 9.775-5.98v-13.685a23.063 23.063 0 0 1 -8.8 1.725h-1.95a23.063 23.063 0 0 1 -8.8-1.725z" transform="translate(-13.647 -52.39)"/><path d="m111.272 113.369h-1.955a23.559 23.559 0 0 1 -23.517-23.517v-18.572a1.108 1.108 0 0 1 .862-1.092 1.211 1.211 0 0 1 .747-.287h1.491a1.035 1.035 0 0 1 .862.4c1.782 1.955 9.6 4.082 20.527 4.082s18.745-2.127 20.527-4.082a1.223 1.223 0 0 1 .862-.4h1.495a1.093 1.093 0 0 1 .747.287 1.108 1.108 0 0 1 .862 1.092v18.572a23.472 23.472 0 0 1 -13.045 21.048 22.79 22.79 0 0 1 -10.465 2.469zm-23.172-41.169v17.652a21.3 21.3 0 0 0 21.217 21.217h1.955a20.526 20.526 0 0 0 9.43-2.242 21.182 21.182 0 0 0 11.787-18.975v-17.652a.056.056 0 0 1 -.057-.057h-.288c-3.047 2.7-11.672 4.485-21.85 4.485s-18.8-1.782-21.85-4.485zm22.195 25.069a7.583 7.583 0 0 1 -7.59-7.59 1.153 1.153 0 0 1 1.15-1.15h12.88a1.153 1.153 0 0 1 1.15 1.15 7.583 7.583 0 0 1 -7.591 7.59zm-5.117-6.44a5.3 5.3 0 0 0 10.35 0z" transform="translate(-4.466 -23.708)"/><path d="m122.79 111.04a7.583 7.583 0 0 1 -7.59-7.59 1.153 1.153 0 0 1 1.15-1.15h12.88a1.153 1.153 0 0 1 1.15 1.15 7.583 7.583 0 0 1 -7.59 7.59zm-5.117-6.44a5.3 5.3 0 0 0 10.35 0z" transform="translate(-16.962 -37.479)"/><path d="m168.45 88.025a1.153 1.153 0 0 1 -1.15-1.15v-8.625a1.153 1.153 0 0 1 1.15-1.15 5.5 5.5 0 0 1 5.462 5.462 5.423 5.423 0 0 1 -5.462 5.463zm1.15-8.395v5.922a3.12 3.12 0 0 0 2.012-2.932 3.063 3.063 0 0 0 -2.012-2.99z" transform="translate(-39.105 -26.768)"/><path d="m133.461 48.469h-49.561a1.108 1.108 0 0 1 -1.092-.862 22.974 22.974 0 0 1 -.8-5.922c0-12.3 9.947-22.827 23.115-24.494a1.116 1.116 0 0 1 .92.287 1.223 1.223 0 0 1 .4.862v27.484h4.485v-27.424a1.035 1.035 0 0 1 .4-.862 1.061 1.061 0 0 1 .92-.287c13.167 1.61 23.115 12.132 23.115 24.494a23.316 23.316 0 0 1 -.8 5.922 1.121 1.121 0 0 1 -1.102.802zm-20.24-2.3h19.32a19.77 19.77 0 0 0 .517-4.427c0-10.752-8.452-20.01-19.837-22.022zm-28.4 0h19.32v-26.45c-11.389 2.013-19.841 11.212-19.841 22.022a19.771 19.771 0 0 0 .517 4.428z" transform="translate(-2.851 -1.3)"/><path d="m111.272 75.65c-10.695 0-19.607-1.955-22.252-4.83a3.383 3.383 0 0 1 -.92-2.012 1.268 1.268 0 0 1 .345-.862 1.135 1.135 0 0 1 .8-.345h43.987a1.044 1.044 0 0 1 .8.345 1.17 1.17 0 0 1 .345.862 3.384 3.384 0 0 1 -.92 2.012c-2.578 2.875-11.49 4.83-22.185 4.83zm-19.78-5.75c2.7 1.782 10 3.45 19.78 3.45s17.077-1.667 19.78-3.45z" transform="translate(-5.444 -22.731)"/><path d="m84.987 71.58h-3.737a1.153 1.153 0 0 1 -1.15-1.15v-1.38a1.153 1.153 0 0 1 1.15-1.15h3.737a1.153 1.153 0 0 1 1.15 1.15v1.38a1.153 1.153 0 0 1 -1.15 1.15z" transform="translate(-2.044 -22.858)"/><path d="m171.087 71.58h-3.737a1.153 1.153 0 0 1 -1.15-1.15v-1.38a1.153 1.153 0 0 1 1.15-1.15h3.737a1.153 1.153 0 0 1 1.15 1.15v1.38a1.153 1.153 0 0 1 -1.15 1.15z" transform="translate(-38.637 -22.858)"/><path d="m128.435 47.087h-6.785a1.153 1.153 0 0 1 -1.15-1.15v-30.187a1.153 1.153 0 0 1 1.15-1.15h6.785a1.153 1.153 0 0 1 1.15 1.15v30.187a1.153 1.153 0 0 1 -1.15 1.15zm-5.635-2.3h4.485v-27.887h-4.485z" transform="translate(-19.214 -.205)"/><path d="m110 185.616a60.63 60.63 0 0 1 -16.042-2.185h-.118a20.532 20.532 0 0 1 -2.3-.69h-.057c-.747-.23-1.495-.517-2.3-.8l-.115-.057a.056.056 0 0 1 -.057-.057c-1.15-.46-2.242-.862-3.22-1.265a1.136 1.136 0 0 1 -.69-1.035v-18.463a1.17 1.17 0 0 1 .345-.862 37.85 37.85 0 0 1 8.165-5.692 1.2 1.2 0 0 1 1.725 1.035v17.02h29.382v-17.02a1.186 1.186 0 0 1 .575-.977 1.167 1.167 0 0 1 1.15-.057 35.933 35.933 0 0 1 8.165 5.692 1.17 1.17 0 0 1 .345.862v18.4a1.136 1.136 0 0 1 -.69 1.035c-.977.4-2.012.862-3.22 1.265a.056.056 0 0 0 -.057.057l-.115.057c-.8.288-1.61.575-2.3.8h-.058c-.8.287-1.61.517-2.3.69h-.113a58.825 58.825 0 0 1 -16.1 2.247zm-15.64-4.427h.115a58.086 58.086 0 0 0 31.049 0h.115c.632-.172 1.322-.4 2.127-.632h.058c.69-.23 1.437-.46 2.242-.747h.115c.862-.345 1.725-.632 2.472-.977v-17.194a32.721 32.721 0 0 0 -5.635-4.082v16.215a1.153 1.153 0 0 1 -1.15 1.15h-31.683a1.153 1.153 0 0 1 -1.15-1.15v-16.215a35.1 35.1 0 0 0 -5.635 4.082v17.192c.747.345 1.552.633 2.472.977h.115c.8.288 1.495.517 2.242.747h.057c.749.231 1.439.404 2.071.634z" transform="translate(-4.169 -59.616)"/></g><path d="m0 0h198v134h-198z" fill="none"/></svg>