<svg height="134" viewBox="0 0 198 134" width="198" xmlns="http://www.w3.org/2000/svg"><g fill="#2e2e2e"><path d="m147.034 128.007a.852.852 0 0 1 -.586-.2.978.978 0 0 1 -.244-1.269 25.073 25.073 0 0 0 1.66-4.2c.244-.683.439-1.367.732-2.05 1.025-2.783 2-6 1.172-9.081a8.323 8.323 0 0 1 -.1-2.685 5.606 5.606 0 0 0 .049-.879 2.078 2.078 0 0 1 -.83-.2.723.723 0 0 0 -.537-.049 1.067 1.067 0 0 0 -.146.244 2.4 2.4 0 0 1 -.928.928 2.086 2.086 0 0 1 -1.416.1.294.294 0 0 1 -.2-.049 2.067 2.067 0 0 0 -.244.342c-.537 1.074-1.367 1.367-2.783.879a4.335 4.335 0 0 1 -2.148-1.855 3.41 3.41 0 0 0 -.635-.781 3.161 3.161 0 0 0 -.732-.537 4.044 4.044 0 0 1 -1.513-1.367 5.586 5.586 0 0 1 -.488-2.978 7.145 7.145 0 0 0 -.146-1.855 6.735 6.735 0 0 1 -.146-4.98 24.294 24.294 0 0 0 1.416-4.931.17.17 0 0 0 -.049-.1 1.878 1.878 0 0 1 -.342-1.269 8.2 8.2 0 0 1 -2.783-2.978 1.826 1.826 0 0 1 1.123-2.343 1.288 1.288 0 0 0 .439-.293.048.048 0 0 1 -.049-.049 3.365 3.365 0 0 1 -1.221-1.074 2.5 2.5 0 0 1 -.244-2.685 2.574 2.574 0 0 0 .244-.732c.244-1.172.1-1.465.1-1.465a2.741 2.741 0 0 0 -.928-.244 5.549 5.549 0 0 1 -2.49-.83 3.164 3.164 0 0 1 -1.269-2.2 3.706 3.706 0 0 0 -.293-.879 3.461 3.461 0 0 0 -.879-.781 4.954 4.954 0 0 1 -.635-.439.779.779 0 0 1 -.391-.683 2.038 2.038 0 0 1 .732-1.806 2.451 2.451 0 0 1 2.2-.586 2.157 2.157 0 0 1 1.172.781l.293.293a1.084 1.084 0 0 1 1.074.2 1.047 1.047 0 0 1 .2 1.123 1.1 1.1 0 0 1 -1.074.781.294.294 0 0 1 -.2-.049 2.682 2.682 0 0 1 -1.66-.976c-.1-.1-.244-.244-.293-.244a.294.294 0 0 0 -.2.049 4.061 4.061 0 0 1 1.367 1.269 5.353 5.353 0 0 1 .586 1.513c.146.586.2.83.488 1.025a4.128 4.128 0 0 0 1.709.537 2.908 2.908 0 0 1 2.246 1.074 3.674 3.674 0 0 1 .2 2.978 8.151 8.151 0 0 1 -.293.976c-.2.537-.2.537.049.928.1.2.293.293.537.439a1.763 1.763 0 0 1 .83 2.539 2.655 2.655 0 0 1 -1.318 1.269.17.17 0 0 0 -.1.049v.049a8.092 8.092 0 0 0 1.709 1.709 1.319 1.319 0 0 0 1.123-.1.8.8 0 0 0 .439-.586 2.839 2.839 0 0 0 -.488-1.074 4.7 4.7 0 0 1 -.781-1.953.959.959 0 0 1 .781-1.025c.049 0 .146-.146.2-.244a1.849 1.849 0 0 1 .879-.683 3 3 0 0 1 .879-.146.8.8 0 0 1 .537-.635 2.626 2.626 0 0 1 2.734.586 2.293 2.293 0 0 0 .439.293.855.855 0 0 1 .83-.293 1.019 1.019 0 0 1 .781.537c.1.2.146.244.537.342a2.118 2.118 0 0 1 1.318.781 3.414 3.414 0 0 1 .537 2.05 2.293 2.293 0 0 0 .1.879 1.078 1.078 0 0 1 0 .781.967.967 0 0 1 -.537.537c-.683.293-.781.488-.781.488s0 .049.1.146a1.058 1.058 0 0 1 0 1.074.958.958 0 0 1 -.976.439 4.783 4.783 0 0 1 -2.734-1.758 2.612 2.612 0 0 0 -.683-.635s-.146 0-.537.342a9.023 9.023 0 0 0 -.683.683 5.4 5.4 0 0 1 -1.758 1.465 1.673 1.673 0 0 1 -.781.146 1.764 1.764 0 0 1 .2 1.025 28.228 28.228 0 0 1 -1.562 5.419 4.908 4.908 0 0 0 .146 3.71 7.21 7.21 0 0 1 .244 2.49 4.528 4.528 0 0 0 .244 1.953 2.739 2.739 0 0 0 .879.683 6.062 6.062 0 0 1 1.123.83 12.806 12.806 0 0 1 .83 1.025c.439.635.683.976 1.221 1.123a2.2 2.2 0 0 0 .391.1 2.881 2.881 0 0 1 1.074-1.22 1.774 1.774 0 0 1 1.465-.146c.049 0 .146.049.2.049.049-.049.1-.146.146-.2a2.013 2.013 0 0 1 .976-.928 2.69 2.69 0 0 1 1.953-.049c.342.1.342.1.537 0a.934.934 0 0 1 .879-.1 1.024 1.024 0 0 1 .635.635 6.535 6.535 0 0 1 .1 2.587 6.686 6.686 0 0 0 .049 2 14.676 14.676 0 0 1 -.293 7.567 36.8 36.8 0 0 0 2.636-13.816.976.976 0 0 1 1.953 0 38.869 38.869 0 0 1 -6.542 21.676l-.146.146c-.488.488-1.025.928-1.513 1.416-.605.067-.849.165-1.094.165zm-3.222-42.913a3 3 0 0 1 2.1 1.269 2.314 2.314 0 0 0 .488.488 2.577 2.577 0 0 1 1.025-1.025c0-.244-.049-.488-.049-.683a2.167 2.167 0 0 0 -.1-.879 1.99 1.99 0 0 1 -.342-.1 3.364 3.364 0 0 1 -1.074-.488 1.909 1.909 0 0 1 -1.172-.1 2.575 2.575 0 0 1 -1.855.2 7 7 0 0 1 -.976-.244c-.2-.049-.2-.1-.342-.049l-.1.1a2.894 2.894 0 0 1 -.391.391 3.641 3.641 0 0 0 .342.586 5.5 5.5 0 0 1 .635 1.318 3.12 3.12 0 0 1 1.811-.784z" transform="translate(-17.798 -29.346)"/><path d="m167.776 185.486a.984.984 0 0 1 -.537-.146.959.959 0 0 1 -.439-.83.984.984 0 0 1 .146-.537l.146-.2a.857.857 0 0 1 .2-.244 1.012 1.012 0 0 1 1.367-.293.959.959 0 0 1 .439.83.984.984 0 0 1 -.146.537c-.049.1-.146.2-.2.293l-.1.146a1.266 1.266 0 0 1 -.876.444z" transform="translate(-37.368 -87.704)"/><path d="m66.327 140.05a4.226 4.226 0 0 1 -2.783-1.172c-2.2-2.05-2-5.077-1.855-7.762.2-3.222.2-5.273-1.855-6.4-.293-.146-.537-.293-.732-.391a4.452 4.452 0 0 1 -2.148-1.9 8.933 8.933 0 0 1 -.928-2.148c-.146-.439-.293-.83-.439-1.221a2.722 2.722 0 0 0 -.586-.781 3.857 3.857 0 0 1 -1.172-2.148 1.844 1.844 0 0 1 .391-1.318v-.146a3.912 3.912 0 0 1 -.049-1.025 4.971 4.971 0 0 1 1.318-2.638 6.253 6.253 0 0 0 .928-1.465 3.271 3.271 0 0 0 .2-1.562c-.049 0-.049.049-.1.049a2.021 2.021 0 0 1 -1.513.293 5.152 5.152 0 0 1 -2.539-2c-.1-.1-.146-.2-.244-.293a13.972 13.972 0 0 1 -1.074-1.465 7.586 7.586 0 0 0 -1.611-1.9 25.437 25.437 0 0 0 -2.246-1.465c-.537-.342-1.074-.635-1.611-1.025-2.343-1.562-2.392-2.685-2.343-4.687v-.98a5.3 5.3 0 0 0 -.342-1.66 6.949 6.949 0 0 1 -.391-2.05c0-.537 0-1.074.049-1.611s.049-1.025.049-1.513c-.1-2.2-.244-4.98 1.66-7.323.391-.439.732-.83 1.074-1.221a12.223 12.223 0 0 0 1.074-1.172 27.651 27.651 0 0 0 1.806-2.587 11.368 11.368 0 0 1 2.1-2.246c.391-.391.83-.732 1.172-1.123a.873.873 0 0 1 -.439-.488.982.982 0 0 1 .146-1.025 10.149 10.149 0 0 1 1.025-1.025l.1-.1a36.812 36.812 0 0 1 5.907-2.929.975.975 0 0 1 .732 1.806 30.034 30.034 0 0 0 -5.028 2.49 1 1 0 0 1 .1.976 9.376 9.376 0 0 1 -2.392 2.832 12.132 12.132 0 0 0 -1.758 1.855c-.586.928-1.172 1.758-1.9 2.734a17 17 0 0 1 -1.18 1.37c-.342.342-.635.683-.976 1.074-1.324 1.611-1.324 3.563-1.224 5.956a10.576 10.576 0 0 1 -.049 1.758 13.719 13.719 0 0 0 -.049 1.416 6.443 6.443 0 0 0 .342 1.562 7.98 7.98 0 0 1 .439 2.2v1.074c-.049 1.66-.049 2 1.513 3.027a15.655 15.655 0 0 0 1.513.928 19.638 19.638 0 0 1 2.49 1.611c.049.049.1.1.146.1a1.149 1.149 0 0 1 -.1-.391 2.463 2.463 0 0 1 .732-1.855c.1-.146.2-.244.244-.342l-.293.146c-.976.488-2.246 1.123-3.369.488a3.007 3.007 0 0 1 -1.359-2.398 5.778 5.778 0 0 1 2.978-5.468 3.091 3.091 0 0 1 1.953-.146 1.97 1.97 0 0 0 .732.049 1.448 1.448 0 0 0 .537-.2 2.625 2.625 0 0 1 2.2-.2 2.569 2.569 0 0 1 1.7 1.621 2.618 2.618 0 0 1 1.367-2.734 9.013 9.013 0 0 1 1.269-.586 1.407 1.407 0 0 0 1.074-.879 3.542 3.542 0 0 0 .244-.586 4.2 4.2 0 0 1 .928-1.709 2.642 2.642 0 0 1 1.806-.732 1.5 1.5 0 0 0 .635-.146l.342-.342a2.658 2.658 0 0 1 1.318-1.025 2.27 2.27 0 0 1 1.416.049 2.2 2.2 0 0 0 .391.1l.049-.049a2.139 2.139 0 0 1 -.293-1.025c0-.049 0-.049-.049-.049a2.38 2.38 0 0 1 -.146-.342.976.976 0 0 1 .683-1.221.929.929 0 0 1 1.172.586 2.187 2.187 0 0 1 .293 1.074.378.378 0 0 0 .049.146 1.709 1.709 0 0 1 -.2 2.05 2.114 2.114 0 0 1 -2.49.683 2.2 2.2 0 0 0 -.391-.1.932.932 0 0 0 -.342.391 8.74 8.74 0 0 1 -.683.732 2.848 2.848 0 0 1 -1.562.537c-.391.049-.537.1-.683.244a4.5 4.5 0 0 0 -.488.976 5.423 5.423 0 0 1 -.342.781 3.346 3.346 0 0 1 -2.2 1.855 3.468 3.468 0 0 0 -.879.391c-.488.293-.439.342-.439 1.123a14.511 14.511 0 0 1 0 1.465c-.244 2.1-1.172 3.173-2.685 3.271a1 1 0 0 1 -1.025-.732 5.817 5.817 0 0 1 -.049-2.05c.1-1.367.049-1.611-.537-1.806-.244-.1-.342-.049-.732.146a3.342 3.342 0 0 1 -1.172.342 3.444 3.444 0 0 1 -1.269-.1 1.738 1.738 0 0 0 -.879 0 3.744 3.744 0 0 0 -1.801 3.371c.1.635.293.928.342.928.244.146 1.172-.293 1.611-.537.879-.439 1.66-.83 2.441-.439a1.541 1.541 0 0 1 .83 1.025 2.952 2.952 0 0 1 -.83 2.587 2.037 2.037 0 0 0 -.293.391.17.17 0 0 0 .1.049c.1.049.391.049.537.1a2.491 2.491 0 0 1 2 .83 1.587 1.587 0 0 1 .2 1.416c-.049.293-.244.439-.439.683a3.55 3.55 0 0 0 -.391.439 8.31 8.31 0 0 0 .049 1.025v.049c.293.293.928.293 1.806.2.146 0 .293-.049.439-.049h.293a2.124 2.124 0 0 0 1.123-.342l.342-.2a4.016 4.016 0 0 1 3.71-.488 2.771 2.771 0 0 1 1.025.928c.146.2.2.244.244.244a2.393 2.393 0 0 0 .928-.146 4.663 4.663 0 0 1 1.416-.146 4.311 4.311 0 0 1 3.027 1.562 4.969 4.969 0 0 0 1.123.879 8.73 8.73 0 0 0 1.562.635 7.348 7.348 0 0 1 2.734 1.416 8.246 8.246 0 0 1 1.416 1.806 5.066 5.066 0 0 0 1.367 1.611 15.807 15.807 0 0 0 3.613 1.318c.244.049.586.1.879.146 1.123.146 2.685.293 3.369 1.806.976 2.148-.488 3.661-1.562 4.784-.635.683-1.269 1.269-1.367 1.9a5.306 5.306 0 0 0 -.049.879 3.614 3.614 0 0 1 -1.416 3.271 5.275 5.275 0 0 1 -2.246.83 3.251 3.251 0 0 0 -1.465.488 5.923 5.923 0 0 0 -1.025 1.465 7.308 7.308 0 0 1 -1.367 2 11.466 11.466 0 0 1 -1.562 1.123 9.022 9.022 0 0 0 -1.318.928 9.5 9.5 0 0 1 -2.148 1.367c-.781.439-1.855 1.025-1.953 1.465-.049.2.146.537.488.928a.975.975 0 0 1 -.049 1.318 2.09 2.09 0 0 1 -1.907.978zm-10.448-24.02a3.58 3.58 0 0 0 .683.976 4.881 4.881 0 0 1 .879 1.269 8.863 8.863 0 0 1 .537 1.465 7.37 7.37 0 0 0 .683 1.66 2.625 2.625 0 0 0 1.367 1.172 7.168 7.168 0 0 1 .83.439c3.222 1.855 3.027 5.224 2.832 8.2-.146 2.441-.293 4.784 1.221 6.2a2.569 2.569 0 0 0 1.318.635 2.211 2.211 0 0 1 -.2-1.465c.244-1.367 1.611-2.1 2.929-2.832a9.915 9.915 0 0 0 1.758-1.123 11.469 11.469 0 0 1 1.562-1.123 9.022 9.022 0 0 0 1.318-.928 4.789 4.789 0 0 0 .976-1.465 6.733 6.733 0 0 1 1.513-2.1 4.971 4.971 0 0 1 2.295-.879 2.86 2.86 0 0 0 1.416-.488c.586-.439.635-.781.635-1.758a7.56 7.56 0 0 1 .049-1.025 5.361 5.361 0 0 1 1.9-3.076c1.172-1.172 1.562-1.709 1.172-2.587-.2-.488-.83-.586-1.806-.683a9.774 9.774 0 0 1 -1.172-.2 18.546 18.546 0 0 1 -4.247-1.562 6.734 6.734 0 0 1 -1.9-2.2 6.842 6.842 0 0 0 -1.123-1.465 5.11 5.11 0 0 0 -2-.976 8.721 8.721 0 0 1 -1.9-.781 10.266 10.266 0 0 1 -1.513-1.221 2.412 2.412 0 0 0 -1.806-.976 3.61 3.61 0 0 0 -.879.146 3.588 3.588 0 0 1 -1.9.1 2.01 2.01 0 0 1 -1.269-1.025c-.049-.1-.146-.244-.2-.244-.586-.244-1.074-.1-2 .439l-.293.2a3.691 3.691 0 0 1 -1.074.488 5.162 5.162 0 0 1 -.146 2.978 6.742 6.742 0 0 1 -1.221 2 3.348 3.348 0 0 0 -.879 1.758c0 .049.049.342.049.537a3 3 0 0 1 .049.635 1.815 1.815 0 0 1 -.439.879zm-3.759-13.523c.244.342.488.683.732.976a.254.254 0 0 1 .1.2v-.1a2.858 2.858 0 0 1 .488-.83h-.2a4.179 4.179 0 0 1 -1.12-.246z" transform="translate(26.197 -27.964)"/><path d="m78.913 88.106h-.1a1.046 1.046 0 0 1 -.928-.976 5.245 5.245 0 0 1 0-.879c0-.635 0-.83-.244-1.172a1.048 1.048 0 0 0 -.342-.2 2.828 2.828 0 0 1 -1.367-1.709c-.342-1.562.732-2.734 3.271-3.515a.973.973 0 0 1 .586 1.855c-1.465.439-2.05.928-1.953 1.221.049.146.049.146.391.342a2.563 2.563 0 0 1 1.025.83 3.872 3.872 0 0 1 .391.781c.244-.293.488-.586.683-.83.2-.2.342-.439.537-.635a.976.976 0 0 1 1.565 1.181 8.5 8.5 0 0 1 -.586.683 10.227 10.227 0 0 0 -.683.83c-.342.68-1.318 2.193-2.246 2.193z" transform="translate(9.168 -34.751)"/><path d="m70.584 131.582a3.5 3.5 0 0 1 -1.416-.293 2.516 2.516 0 0 1 -1.074-1.074c0-.049-.049-.049-.049-.1a1.83 1.83 0 0 0 -.732 0h-.537a2.442 2.442 0 0 1 -1.953-.83.953.953 0 0 1 -.146-1.123 2.49 2.49 0 0 1 2.246-1.465c1.513 0 3.027 1.269 4.15 2.2a4.457 4.457 0 0 0 .635.488l.2.1a1.047 1.047 0 0 1 .537.928 1.011 1.011 0 0 1 -.635.879 2.967 2.967 0 0 1 -1.226.29z" transform="translate(14.958 -58.845)"/><path d="m79.485 136.166a1.627 1.627 0 0 1 -1.66-1.367 1.754 1.754 0 0 1 .244-1.513 1.638 1.638 0 0 1 1.367-.586 3.41 3.41 0 0 1 2.587 1.269c0 .049.049.049.049.1l.146.293a.972.972 0 0 1 -.1 1.025.9.9 0 0 1 -.879.391 4.5 4.5 0 0 0 -.439.146 5.276 5.276 0 0 1 -1.315.242z" transform="translate(8.206 -61.916)"/><path d="m74.142 128.936a2.85 2.85 0 0 1 -1.465-.537 2.332 2.332 0 0 1 -.976-2.734c0-.146.049-.293.049-.439a1.119 1.119 0 0 1 1.123-1.025c.146 0 .244.049.342.049a1.473 1.473 0 0 1 1.221 1.66c.049 0 .1 0 .1.049a1.242 1.242 0 0 1 1.025.879 2.072 2.072 0 0 1 -.244 1.66 2.035 2.035 0 0 1 -1.175.438z" transform="translate(11.351 -57.565)"/><path d="m136.091 90.157a.831.831 0 0 1 -.342-.049 2.891 2.891 0 0 1 -1.709-1.758 1.577 1.577 0 0 1 .342-1.465 1.41 1.41 0 0 1 1.123-.586c1.221 0 1.709 1.513 1.806 2a1.085 1.085 0 0 1 -.146.781 1.5 1.5 0 0 1 -.342.683.763.763 0 0 1 -.732.394z" transform="translate(-20.573 -38.168)"/><path d="m137.269 88.614h-.049c-.732 0-1.367-.586-1.709-1.611-.049-.1-.049-.2-.1-.293a.752.752 0 0 0 -.146-.342 3.337 3.337 0 0 0 -.635-.2c-.683-.146-2.246-.537-2.05-2.295a.992.992 0 0 1 .732-.83.831.831 0 0 1 .342-.049 10.785 10.785 0 0 1 4.931 2.343 2.465 2.465 0 0 1 .2 2.343 1.594 1.594 0 0 1 -1.516.934z" transform="translate(-19.847 -36.479)"/><path d="m63.051 142.347a39.271 39.271 0 0 1 -14.351-75.818.975.975 0 0 1 .732 1.806 37.361 37.361 0 1 0 27.339.049.975.975 0 0 1 .732-1.806 39.254 39.254 0 0 1 -14.451 75.769z" transform="translate(35.819 -28.015)"/><path d="m49.672 53.156a.906.906 0 0 1 -.83-.488.983.983 0 0 1 .342-1.367c.635-.391 1.269-.781 1.9-1.123a.972.972 0 1 1 .928 1.709c-.635.342-1.269.732-1.855 1.074a.7.7 0 0 1 -.485.195z" transform="translate(23.08 -19.621)"/><path d="m4.088 86.867a.44.44 0 0 1 -.244-.049.947.947 0 0 1 -.683-1.172 50.981 50.981 0 0 1 19.284-28.461.976.976 0 0 1 1.172 1.562 49 49 0 0 0 -18.5 27.339 1.084 1.084 0 0 1 -1.029.781z" transform="translate(46.402 -23.162)"/><path d="m1.372 129.427h-.1a.985.985 0 0 1 -.872-1.074c.1-.879.2-1.709.293-2.539a.987.987 0 0 1 1.953.293c-.1.83-.2 1.66-.293 2.441a1 1 0 0 1 -.981.879z" transform="translate(47.799 -57.959)"/><path d="m5.273 163.19a.894.894 0 0 1 -.879-.586 50.637 50.637 0 0 1 -4.394-19.528.949.949 0 0 1 .976-.976.949.949 0 0 1 .976.976 48 48 0 0 0 4.247 18.8.93.93 0 0 1 -.488 1.269c-.146-.004-.292.045-.438.045z" transform="translate(48 -66.727)"/><path d="m24.839 205.161a1.028 1.028 0 0 1 -.635-.244 51.531 51.531 0 0 1 -10.35-12.644.963.963 0 0 1 1.66-.976 48.734 48.734 0 0 0 9.959 12.156.991.991 0 0 1 .1 1.367.878.878 0 0 1 -.734.341z" transform="translate(40.981 -91.659)"/><path d="m55.222 230.735a.831.831 0 0 1 -.342-.049 49.743 49.743 0 0 1 -12.4-6.64.976.976 0 0 1 1.172-1.562 48.659 48.659 0 0 0 11.961 6.4 1 1 0 0 1 .586 1.269 1.172 1.172 0 0 1 -.977.582z" transform="translate(26.464 -107.762)"/><path d="m80.8 241.273h-.2c-.732-.146-1.465-.293-2.2-.488a.977.977 0 1 1 .439-1.9c.683.146 1.416.342 2.1.488a1 1 0 0 1 .781 1.172.869.869 0 0 1 -.92.728z" transform="translate(8.253 -116.249)"/><path d="m99.282 238.944q-1.9 0-3.808-.146a.955.955 0 0 1 .146-1.9q1.831.146 3.662.146a48.073 48.073 0 0 0 20.6-4.54.994.994 0 1 1 .83 1.806 51.135 51.135 0 0 1 -21.43 4.634z" transform="translate(-.412 -112.944)"/><path d="m156.272 227.808a.906.906 0 0 1 -.83-.488.919.919 0 0 1 .342-1.318 19.309 19.309 0 0 0 1.66-1.074.989.989 0 1 1 1.074 1.66c-.586.391-1.123.732-1.709 1.123a2.52 2.52 0 0 1 -.537.097z" transform="translate(-31.478 -109.033)"/><path d="m172.95 182.521a1.076 1.076 0 0 1 -.732-.293.944.944 0 0 1 .049-1.367 49.111 49.111 0 0 0 15.085-28.95c.1-.879.244-1.758.293-2.636a.981.981 0 0 1 1.953.2l-.293 2.783a51.172 51.172 0 0 1 -15.671 30.122 2.815 2.815 0 0 1 -.684.141z" transform="translate(-40.003 -69.947)"/><path d="m204.747 131.984a.97.97 0 0 1 -.976-.928 44.389 44.389 0 0 0 -.586-6.249.987.987 0 0 1 1.953-.293 48.615 48.615 0 0 1 .586 6.493.978.978 0 0 1 -.976.976z" transform="translate(-55.981 -57.293)"/><path d="m197.842 103.849a.952.952 0 0 1 -.928-.683 50.81 50.81 0 0 0 -3.124-7.958.982.982 0 1 1 1.758-.879 50.036 50.036 0 0 1 3.271 8.251.988.988 0 0 1 -.635 1.22c-.147 0-.244.049-.342.049z" transform="translate(-51.128 -41.999)"/><path d="m177.984 73.337a1.021 1.021 0 0 1 -.83-.439 50.916 50.916 0 0 0 -9.227-10.2.972.972 0 1 1 1.221-1.513 52.2 52.2 0 0 1 9.618 10.594 1 1 0 0 1 -.244 1.367.734.734 0 0 1 -.538.191z" transform="translate(-37.763 -25.205)"/><path d="m154.765 53.408a.984.984 0 0 1 -.537-.146c-1.221-.781-2.49-1.513-3.759-2.2a.961.961 0 0 1 -.391-1.318.923.923 0 0 1 1.318-.391c1.318.683 2.636 1.465 3.906 2.295a1 1 0 0 1 .293 1.367 1.216 1.216 0 0 1 -.83.393z" transform="translate(-28.75 -19.19)"/><path d="m83.267 54.972a.964.964 0 0 1 -.683-.293c-.049-.049-.049-.049-.049-.1-.535-.633-12.935-16.206-17.526-27.579a20.106 20.106 0 0 1 -1.709-7.081 19.957 19.957 0 0 1 27.339-18.5 18.757 18.757 0 0 1 4.882 2.832l.1.1 3.32 3.32.1.1a19.811 19.811 0 0 1 4.2 12.254c0 10.448-17.234 32.221-19.186 34.662a1.069 1.069 0 0 1 -.683.391c-.056-.106-.056-.106-.105-.106zm0-53.019a18.033 18.033 0 0 0 -18.014 18.014 18.235 18.235 0 0 0 1.562 6.347c3.857 9.666 13.621 22.506 16.452 26.119 6.64-8.446 18.015-24.849 18.015-32.465a18.154 18.154 0 0 0 -3.759-11.034l-3.223-3.222a17.647 17.647 0 0 0 -4.394-2.49 18.04 18.04 0 0 0 -6.639-1.269zm0 29.439a11.97 11.97 0 0 1 -11.912-11.034c0-.293-.049-.586-.049-.928a11.98 11.98 0 0 1 11.961-11.961 5.306 5.306 0 0 1 .879.049 11.952 11.952 0 0 1 -.879 23.873zm0-21.969a10.022 10.022 0 0 0 -10.008 10.007 3.7 3.7 0 0 0 .049.732 10 10 0 1 0 10.741-10.691 4.467 4.467 0 0 0 -.782-.049z" transform="translate(15.603 6)"/></g><path d="m0 0h198v134h-198z" fill="none"/></svg>